<svg xmlns="http://www.w3.org/2000/svg" viewBox="0 0 1200 675" width="1200" height="675">
  <defs>
    <linearGradient id="bg" x1="0" y1="0" x2="1" y2="1">
      <stop offset="0%" stop-color="#050607"/>
      <stop offset="55%" stop-color="#0d1117"/>
      <stop offset="100%" stop-color="#182613"/>
    </linearGradient>
    <linearGradient id="accent" x1="0" y1="0" x2="1" y2="1">
      <stop offset="0%" stop-color="#bef264"/>
      <stop offset="100%" stop-color="#84cc16"/>
    </linearGradient>
    <linearGradient id="blue" x1="0" y1="0" x2="1" y2="1">
      <stop offset="0%" stop-color="#67e8f9"/>
      <stop offset="100%" stop-color="#22c55e"/>
    </linearGradient>
    <radialGradient id="glowA" cx="50%" cy="50%" r="50%">
      <stop offset="0%" stop-color="#84cc16" stop-opacity="0.30"/>
      <stop offset="100%" stop-color="#84cc16" stop-opacity="0"/>
    </radialGradient>
    <radialGradient id="glowB" cx="50%" cy="50%" r="50%">
      <stop offset="0%" stop-color="#67e8f9" stop-opacity="0.15"/>
      <stop offset="100%" stop-color="#67e8f9" stop-opacity="0"/>
    </radialGradient>
    <filter id="shadow" x="-20%" y="-20%" width="140%" height="140%">
      <feDropShadow dx="0" dy="20" stdDeviation="18" flood-color="#000000" flood-opacity="0.48"/>
    </filter>
    <filter id="softShadow" x="-40%" y="-40%" width="180%" height="180%">
      <feDropShadow dx="0" dy="12" stdDeviation="10" flood-color="#000000" flood-opacity="0.38"/>
    </filter>
    <clipPath id="logoClip"><circle cx="0" cy="0" r="52"/></clipPath>
    <style>
      .font { font-family: Inter, ui-sans-serif, system-ui, -apple-system, BlinkMacSystemFont, "Segoe UI", sans-serif; }
      .white { fill: #f5f5f6; }
      .muted { fill: #9ca3af; }
      .lime { fill: #a3e635; }
      .soft { fill: #d4d4d8; }
    </style>
  </defs>

  <rect width="1200" height="675" fill="url(#bg)"/>
  <circle cx="1018" cy="88" r="330" fill="url(#glowA)"/>
  <circle cx="156" cy="610" r="318" fill="url(#glowB)"/>
  <g opacity="0.055">
    <path d="M0 112H1200M0 225H1200M0 338H1200M0 451H1200M0 564H1200" stroke="#84cc16"/>
    <path d="M150 0V675M300 0V675M450 0V675M600 0V675M750 0V675M900 0V675M1050 0V675" stroke="#84cc16"/>
  </g>
  <path d="M-70 132C82 54 246 74 402 124C570 178 690 158 828 88C970 16 1088 52 1260 118" fill="none" stroke="#84cc16" stroke-opacity="0.14" stroke-width="2"/>
  <path d="M-60 540C120 470 246 500 402 552C556 604 718 598 856 520C998 446 1080 468 1240 548" fill="none" stroke="#22c55e" stroke-opacity="0.10" stroke-width="2"/>

  <g transform="translate(72 52)">
    <rect x="0" y="0" width="162" height="52" rx="26" fill="#12151b" stroke="#2c333f"/>
    <g transform="translate(12 9) scale(0.53125)" fill="none" stroke-linecap="round" stroke-linejoin="round">
      <path d="M32 8L54 20.5V45.5L32 58L10 45.5V20.5L32 8Z" stroke="#84cc16" stroke-width="4"/>
      <circle cx="32" cy="33" r="5" fill="#84cc16" stroke="none"/>
      <path d="M32 33L32 20M32 33L21 40M32 33L43 40" stroke="#84cc16" stroke-width="3"/>
      <circle cx="32" cy="20" r="3.5" fill="#84cc16" stroke="none"/>
      <circle cx="21" cy="40" r="3.5" fill="#84cc16" stroke="none"/>
      <circle cx="43" cy="40" r="3.5" fill="#84cc16" stroke="none"/>
      <path d="M32 20L32 8M21 40L10 46M43 40L54 46" stroke="#84cc16" stroke-opacity="0.6" stroke-width="2"/>
      <circle cx="32" cy="8" r="2.5" fill="#84cc16" fill-opacity="0.5" stroke="none"/>
      <circle cx="10" cy="46" r="2.5" fill="#84cc16" fill-opacity="0.5" stroke="none"/>
      <circle cx="54" cy="46" r="2.5" fill="#84cc16" fill-opacity="0.5" stroke="none"/>
    </g>
    <text x="60" y="33" class="font white" font-size="18" font-weight="900" letter-spacing="0.8">WCORE</text>
  </g>

  <g transform="translate(1128 58)" text-anchor="end">
    <text x="0" y="50" class="font white" font-size="56" font-weight="950" letter-spacing="-2.1">Today's WCORE update.</text>
    <text x="0" y="88" class="font muted" font-size="20">Moonbeam + Moonriver GM is live.</text>
  </g>

  <g transform="translate(72 184)" filter="url(#shadow)">
    <rect x="0" y="0" width="548" height="358" rx="34" fill="#101319" stroke="#2b323d"/>
    <rect x="32" y="30" width="148" height="30" rx="15" fill="#172015" stroke="#34551f"/>
    <text x="106" y="50" text-anchor="middle" class="font lime" font-size="13" font-weight="950" letter-spacing="1.1">GM CHAINS</text>

    <g transform="translate(150 176)">
      <circle cx="0" cy="0" r="78" fill="none" stroke="#84cc16" stroke-opacity="0.13" stroke-width="2" stroke-dasharray="7 9"/>
      <circle cx="0" cy="0" r="64" fill="#11151b" stroke="#2b323d" stroke-width="2"/>
      <circle cx="0" cy="0" r="48" fill="#050607" stroke="#34551f" stroke-width="2"/>
      <image href="chains/MOONBEAM.png" x="-38" y="-38" width="76" height="76" clip-path="url(#logoClip)"/>
      <text x="0" y="104" text-anchor="middle" class="font white" font-size="20" font-weight="900">Moonbeam</text>
    </g>

    <g transform="translate(398 176)">
      <circle cx="0" cy="0" r="78" fill="none" stroke="#67e8f9" stroke-opacity="0.13" stroke-width="2" stroke-dasharray="7 9"/>
      <circle cx="0" cy="0" r="64" fill="#11151b" stroke="#2b323d" stroke-width="2"/>
      <circle cx="0" cy="0" r="48" fill="#050607" stroke="#1e4d73" stroke-width="2"/>
      <image href="chains/MOONRIVER.png" x="-38" y="-38" width="76" height="76" clip-path="url(#logoClip)"/>
      <text x="0" y="104" text-anchor="middle" class="font white" font-size="20" font-weight="900">Moonriver</text>
    </g>

    <g transform="translate(58 304)" class="font">
      <rect x="0" y="0" width="142" height="30" rx="15" fill="#172015" stroke="#34551f"/>
      <text x="71" y="20" text-anchor="middle" class="lime" font-size="13" font-weight="950">on-chain GM</text>
      <rect x="154" y="0" width="128" height="30" rx="15" fill="#0c1218" stroke="#2b3340"/>
      <text x="218" y="20" text-anchor="middle" class="white" font-size="13" font-weight="800">creator fees</text>
      <rect x="294" y="0" width="140" height="30" rx="15" fill="#0c1218" stroke="#2b3340"/>
      <text x="364" y="20" text-anchor="middle" class="white" font-size="13" font-weight="800">chain streaks</text>
    </g>
  </g>

  <g transform="translate(644 184)" filter="url(#shadow)">
    <rect x="0" y="0" width="484" height="164" rx="30" fill="#101319" stroke="#2b323d"/>
    <rect x="28" y="28" width="64" height="64" rx="18" fill="#172015" stroke="#34551f"/>
    <path d="M45 63L56 74L78 48" fill="none" stroke="#a3e635" stroke-width="6" stroke-linecap="round" stroke-linejoin="round"/>
    <text x="112" y="56" class="font white" font-size="25" font-weight="950">Cleaner GM status</text>
    <text x="112" y="86" class="font muted" font-size="15">Cards stay aligned after on-chain actions.</text>
    <text x="112" y="115" class="font muted" font-size="13" opacity="0.85">Confirmed GMs flip to done without guesswork.</text>
    <g transform="translate(112 134)" class="font">
      <rect x="0" y="0" width="88" height="22" rx="11" fill="#0c1218" stroke="#2b3340"/>
      <text x="44" y="15" text-anchor="middle" class="white" font-size="11" font-weight="800">GM Done</text>
      <rect x="98" y="0" width="96" height="22" rx="11" fill="#0c1218" stroke="#2b3340"/>
      <text x="146" y="15" text-anchor="middle" class="white" font-size="11" font-weight="800">synced</text>
    </g>
  </g>

  <g transform="translate(644 378)" filter="url(#shadow)">
    <rect x="0" y="0" width="484" height="164" rx="30" fill="#101319" stroke="#2b323d"/>
    <rect x="28" y="28" width="64" height="64" rx="18" fill="#0c1a24" stroke="#1e4d73"/>
    <path d="M45 72C54 46 72 46 80 72" fill="none" stroke="#67e8f9" stroke-width="5" stroke-linecap="round"/>
    <circle cx="50" cy="72" r="5" fill="#67e8f9"/>
    <circle cx="80" cy="72" r="5" fill="#67e8f9"/>
    <text x="112" y="56" class="font white" font-size="25" font-weight="950">Read-only map</text>
    <text x="112" y="86" class="font muted" font-size="15">EVM, Solana, Cosmos and TON in one view.</text>
    <text x="112" y="115" class="font muted" font-size="13" opacity="0.85">Scan portfolios without connecting a wallet.</text>
    <g transform="translate(112 134)" class="font">
      <rect x="0" y="0" width="92" height="22" rx="11" fill="#0c1a24" stroke="#1e4d73"/>
      <text x="46" y="15" text-anchor="middle" class="white" font-size="11" font-weight="800">170+ live</text>
      <rect x="102" y="0" width="78" height="22" rx="11" fill="#0c1a24" stroke="#1e4d73"/>
      <text x="141" y="15" text-anchor="middle" class="white" font-size="11" font-weight="800">read-only</text>
    </g>
  </g>

  <g transform="translate(72 612)">
    <text x="0" y="0" class="font muted" font-size="18" font-weight="750">GM expands. Status gets cleaner. Portfolio scans stay read-only.</text>
    <text x="1056" y="0" text-anchor="end" class="font" font-size="28" font-weight="950" fill="url(#accent)">wcore.xyz</text>
  </g>
  <rect x="0" y="671" width="1200" height="4" fill="url(#accent)" opacity="0.62"/>
</svg>
