<svg xmlns="http://www.w3.org/2000/svg" viewBox="0 0 1200 675" width="1200" height="675">
  <defs>
    <linearGradient id="bg" x1="0" y1="0" x2="1" y2="1">
      <stop offset="0%" stop-color="#060708"/>
      <stop offset="54%" stop-color="#0d1014"/>
      <stop offset="100%" stop-color="#171b22"/>
    </linearGradient>
    <linearGradient id="accent" x1="0" y1="0" x2="1" y2="1">
      <stop offset="0%" stop-color="#bef264"/>
      <stop offset="100%" stop-color="#84cc16"/>
    </linearGradient>
    <linearGradient id="gold" x1="0" y1="0" x2="1" y2="1">
      <stop offset="0%" stop-color="#fde047"/>
      <stop offset="100%" stop-color="#eab308"/>
    </linearGradient>
    <radialGradient id="glowA" cx="50%" cy="50%" r="50%">
      <stop offset="0%" stop-color="#84cc16" stop-opacity="0.26"/>
      <stop offset="100%" stop-color="#84cc16" stop-opacity="0"/>
    </radialGradient>
    <radialGradient id="glowB" cx="50%" cy="50%" r="50%">
      <stop offset="0%" stop-color="#22c55e" stop-opacity="0.16"/>
      <stop offset="100%" stop-color="#22c55e" stop-opacity="0"/>
    </radialGradient>
    <filter id="softShadow" x="-20%" y="-20%" width="140%" height="140%">
      <feDropShadow dx="0" dy="20" stdDeviation="18" flood-color="#000000" flood-opacity="0.48"/>
    </filter>
  </defs>

  <rect width="1200" height="675" fill="url(#bg)"/>
  <circle cx="1030" cy="82" r="300" fill="url(#glowA)"/>
  <circle cx="185" cy="620" r="310" fill="url(#glowB)"/>
  <g opacity="0.052">
    <path d="M0 112H1200M0 225H1200M0 338H1200M0 451H1200M0 564H1200" stroke="#84cc16"/>
    <path d="M150 0V675M300 0V675M450 0V675M600 0V675M750 0V675M900 0V675M1050 0V675" stroke="#84cc16"/>
  </g>
  <path d="M-70 138C74 44 238 72 392 124C570 184 684 166 806 98C934 28 1070 54 1270 122" fill="none" stroke="#84cc16" stroke-opacity="0.14" stroke-width="2"/>

  <!-- Badge WCORE -->
  <g transform="translate(72 52)">
    <rect x="0" y="0" width="162" height="52" rx="26" fill="#12151b" stroke="#2c333f"/>
    <g transform="translate(12 9) scale(0.53125)" fill="none" stroke-linecap="round" stroke-linejoin="round">
      <path d="M32 8L54 20.5V45.5L32 58L10 45.5V20.5L32 8Z" stroke="#84cc16" stroke-width="4"/>
      <circle cx="32" cy="33" r="5" fill="#84cc16" stroke="none"/>
      <path d="M32 33L32 20M32 33L21 40M32 33L43 40" stroke="#84cc16" stroke-width="3"/>
      <circle cx="32" cy="20" r="3.5" fill="#84cc16" stroke="none"/>
      <circle cx="21" cy="40" r="3.5" fill="#84cc16" stroke="none"/>
      <circle cx="43" cy="40" r="3.5" fill="#84cc16" stroke="none"/>
      <path d="M32 20L32 8M21 40L10 46M43 40L54 46" stroke="#84cc16" stroke-opacity="0.6" stroke-width="2"/>
      <circle cx="32" cy="8" r="2.5" fill="#84cc16" fill-opacity="0.5" stroke="none"/>
      <circle cx="10" cy="46" r="2.5" fill="#84cc16" fill-opacity="0.5" stroke="none"/>
      <circle cx="54" cy="46" r="2.5" fill="#84cc16" fill-opacity="0.5" stroke="none"/>
    </g>
    <text x="60" y="33" font-family="Inter, system-ui, -apple-system, sans-serif" font-size="18" font-weight="900" fill="#f4f4f5" letter-spacing="0.8">WCORE</text>
  </g>

  <!-- Headline -->
  <g transform="translate(72 133)">
    <text x="0" y="68" font-family="Inter, system-ui, -apple-system, sans-serif" font-size="66" font-weight="950" fill="url(#accent)" letter-spacing="-2.3">You are early.</text>
    <text x="0" y="112" font-family="Inter, system-ui, -apple-system, sans-serif" font-size="22" fill="#9ca3af">The leaderboard is empty. #1 is sitting there, waiting.</text>
  </g>

  <!-- Crown + Claim #1 top-right -->
  <g transform="translate(805 128)" filter="url(#softShadow)">
    <rect x="0" y="0" width="138" height="138" rx="34" fill="#101319" stroke="#2b323d"/>
    <!-- Crown shape -->
    <g transform="translate(30 16)">
      <path d="M10 60L10 30L25 45L39 15L52 45L67 30L67 60Z" fill="url(#gold)" stroke="#ca8a04" stroke-width="2" stroke-linejoin="round"/>
      <rect x="10" y="60" width="57" height="10" rx="4" fill="url(#gold)" stroke="#ca8a04" stroke-width="1.5"/>
      <!-- Gems -->
      <circle cx="25" cy="45" r="4" fill="#fef3c7"/>
      <circle cx="39" cy="15" r="4" fill="#fef3c7"/>
      <circle cx="52" cy="45" r="4" fill="#fef3c7"/>
    </g>
    <text x="69" y="116" text-anchor="middle" font-family="Inter, system-ui, -apple-system, sans-serif" font-size="16" font-weight="900" fill="url(#gold)">Be #1</text>
  </g>

  <!-- Carte gauche : leaderboard vide -->
  <g transform="translate(72 300)" filter="url(#softShadow)">
    <rect x="0" y="0" width="508" height="242" rx="30" fill="#101319" stroke="#2b323d"/>
    <text x="28" y="38" font-family="Inter, system-ui, -apple-system, sans-serif" font-size="14" font-weight="900" fill="#6b7280" letter-spacing="1.6">LEADERBOARD · ALL TIME</text>

    <!-- #1 -->
    <g transform="translate(28 58)">
      <rect x="0" y="0" width="452" height="56" rx="16" fill="#1a1910" stroke="#4a4210"/>
      <text x="20" y="38" font-family="Inter, system-ui, -apple-system, sans-serif" font-size="28" font-weight="950" fill="url(#gold)">#1</text>
      <text x="64" y="26" font-family="Inter, system-ui, -apple-system, sans-serif" font-size="20" font-weight="900" fill="url(#accent)">This could be you</text>
      <text x="64" y="46" font-family="Inter, system-ui, -apple-system, sans-serif" font-size="13" fill="#9ca3af">Be the first. Define the ranking.</text>
      <text x="430" y="36" text-anchor="end" font-family="Inter, system-ui, -apple-system, sans-serif" font-size="18" font-weight="950" fill="url(#gold)">0 pts</text>
    </g>

    <!-- #2 -->
    <g transform="translate(28 124)">
      <rect x="0" y="0" width="452" height="46" rx="14" fill="#151a22" stroke="#242832"/>
      <text x="20" y="32" font-family="Inter, system-ui, -apple-system, sans-serif" font-size="20" font-weight="900" fill="#9ca3af">#2</text>
      <text x="58" y="32" font-family="Inter, system-ui, -apple-system, sans-serif" font-size="18" font-weight="700" fill="#9ca3af">—</text>
      <text x="430" y="32" text-anchor="end" font-family="Inter, system-ui, -apple-system, sans-serif" font-size="16" font-weight="800" fill="#9ca3af">0 pts</text>
    </g>

    <!-- #3 -->
    <g transform="translate(28 180)">
      <rect x="0" y="0" width="452" height="46" rx="14" fill="#151a22" stroke="#242832"/>
      <text x="20" y="32" font-family="Inter, system-ui, -apple-system, sans-serif" font-size="20" font-weight="900" fill="#78716c">#3</text>
      <text x="58" y="32" font-family="Inter, system-ui, -apple-system, sans-serif" font-size="18" font-weight="700" fill="#9ca3af">—</text>
      <text x="430" y="32" text-anchor="end" font-family="Inter, system-ui, -apple-system, sans-serif" font-size="16" font-weight="800" fill="#9ca3af">0 pts</text>
    </g>
  </g>

  <!-- Carte droite : comment grimper -->
  <g transform="translate(620 300)" filter="url(#softShadow)">
    <rect x="0" y="0" width="508" height="242" rx="30" fill="#101319" stroke="#2b323d"/>
    <text x="28" y="38" font-family="Inter, system-ui, -apple-system, sans-serif" font-size="14" font-weight="900" fill="url(#accent)" letter-spacing="1.6">HOW TO CLIMB</text>

    <!-- Off-chain GM -->
    <g transform="translate(28 58)">
      <rect x="0" y="0" width="452" height="50" rx="16" fill="#142015" stroke="#1e3020"/>
      <rect x="14" y="11" width="28" height="28" rx="9" fill="#172015" stroke="#34551f"/>
      <path d="M22 25H36" stroke="#a3e635" stroke-width="2.5" stroke-linecap="round"/>
      <text x="54" y="22" font-family="Inter, system-ui, -apple-system, sans-serif" font-size="17" font-weight="850" fill="#f5f5f6">Off-chain GM</text>
      <text x="54" y="38" font-family="Inter, system-ui, -apple-system, sans-serif" font-size="12" fill="#9ca3af">Free daily greeting. Streak builds over time.</text>
      <text x="430" y="29" text-anchor="end" font-family="Inter, system-ui, -apple-system, sans-serif" font-size="15" font-weight="900" fill="#bef264">+10/day</text>
    </g>

    <!-- On-chain GM -->
    <g transform="translate(28 118)">
      <rect x="0" y="0" width="452" height="50" rx="16" fill="#142015" stroke="#1e3020"/>
      <rect x="14" y="11" width="28" height="28" rx="9" fill="#172015" stroke="#34551f"/>
      <path d="M22 25H36M22 31H30" stroke="#a3e635" stroke-width="2.5" stroke-linecap="round"/>
      <text x="54" y="22" font-family="Inter, system-ui, -apple-system, sans-serif" font-size="17" font-weight="850" fill="#f5f5f6">On-chain GM</text>
      <text x="54" y="38" font-family="Inter, system-ui, -apple-system, sans-serif" font-size="12" fill="#9ca3af">Deploy a contract. Earn creator tips. 40 chains.</text>
      <text x="430" y="29" text-anchor="end" font-family="Inter, system-ui, -apple-system, sans-serif" font-size="15" font-weight="900" fill="#bef264">+20 base</text>
    </g>

    <!-- Referral -->
    <g transform="translate(28 178)">
      <rect x="0" y="0" width="452" height="50" rx="16" fill="#142015" stroke="#1e3020"/>
      <rect x="14" y="11" width="28" height="28" rx="9" fill="#172015" stroke="#34551f"/>
      <path d="M28 21V31M23 26H33" stroke="#a3e635" stroke-width="2.5" stroke-linecap="round"/>
      <text x="54" y="22" font-family="Inter, system-ui, -apple-system, sans-serif" font-size="17" font-weight="850" fill="#f5f5f6">Referral bonus</text>
      <text x="54" y="38" font-family="Inter, system-ui, -apple-system, sans-serif" font-size="12" fill="#9ca3af">Share your link. Earn from your network's points.</text>
      <text x="430" y="29" text-anchor="end" font-family="Inter, system-ui, -apple-system, sans-serif" font-size="15" font-weight="900" fill="#bef264">+10%</text>
    </g>
  </g>

  <!-- Footer -->
  <g transform="translate(72 584)">
    <text x="0" y="0" font-family="Inter, system-ui, -apple-system, sans-serif" font-size="18" font-weight="750" fill="#9ca3af">Deploy contract, say GM, climb the board. Free.</text>
    <text x="1056" y="0" text-anchor="end" font-family="Inter, system-ui, -apple-system, sans-serif" font-size="28" font-weight="950" fill="url(#accent)">wcore.xyz</text>
  </g>
  <rect x="0" y="671" width="1200" height="4" fill="url(#accent)" opacity="0.62"/>
</svg>