<svg xmlns="http://www.w3.org/2000/svg" viewBox="0 0 1200 675" width="1200" height="675">
  <defs>
    <linearGradient id="bg" x1="0" y1="0" x2="1" y2="1">
      <stop offset="0%" stop-color="#050607"/>
      <stop offset="58%" stop-color="#0d1117"/>
      <stop offset="100%" stop-color="#172016"/>
    </linearGradient>
    <linearGradient id="accent" x1="0" y1="0" x2="1" y2="1">
      <stop offset="0%" stop-color="#bef264"/>
      <stop offset="100%" stop-color="#84cc16"/>
    </linearGradient>
    <radialGradient id="glowA" cx="50%" cy="50%" r="50%">
      <stop offset="0%" stop-color="#84cc16" stop-opacity="0.28"/>
      <stop offset="100%" stop-color="#84cc16" stop-opacity="0"/>
    </radialGradient>
    <radialGradient id="glowB" cx="50%" cy="50%" r="50%">
      <stop offset="0%" stop-color="#22c55e" stop-opacity="0.15"/>
      <stop offset="100%" stop-color="#22c55e" stop-opacity="0"/>
    </radialGradient>
    <filter id="shadow" x="-20%" y="-20%" width="140%" height="140%">
      <feDropShadow dx="0" dy="20" stdDeviation="18" flood-color="#000000" flood-opacity="0.48"/>
    </filter>
    <clipPath id="chainLogoClip"><circle cx="0" cy="0" r="19"/></clipPath>
    <style>
      .font { font-family: Inter, ui-sans-serif, system-ui, -apple-system, BlinkMacSystemFont, "Segoe UI", sans-serif; }
      .muted { fill: #9ca3af; }
      .soft { fill: #d4d4d8; }
      .white { fill: #f5f5f6; }
    </style>
  </defs>

  <rect width="1200" height="675" fill="url(#bg)"/>
  <circle cx="980" cy="96" r="318" fill="url(#glowA)"/>
  <circle cx="132" cy="620" r="294" fill="url(#glowB)"/>
  <g opacity="0.055">
    <path d="M0 112H1200M0 225H1200M0 338H1200M0 451H1200M0 564H1200" stroke="#84cc16"/>
    <path d="M150 0V675M300 0V675M450 0V675M600 0V675M750 0V675M900 0V675M1050 0V675" stroke="#84cc16"/>
  </g>
  <path d="M-70 142C78 48 238 72 392 124C570 184 684 166 806 98C934 28 1070 54 1270 122" fill="none" stroke="#84cc16" stroke-opacity="0.14" stroke-width="2"/>

  <g transform="translate(72 52)">
    <rect x="0" y="0" width="162" height="52" rx="26" fill="#12151b" stroke="#2c333f"/>
    <g transform="translate(12 9) scale(0.53125)" fill="none" stroke-linecap="round" stroke-linejoin="round">
      <path d="M32 8L54 20.5V45.5L32 58L10 45.5V20.5L32 8Z" stroke="#84cc16" stroke-width="4"/>
      <circle cx="32" cy="33" r="5" fill="#84cc16" stroke="none"/>
      <path d="M32 33L32 20M32 33L21 40M32 33L43 40" stroke="#84cc16" stroke-width="3"/>
      <circle cx="32" cy="20" r="3.5" fill="#84cc16" stroke="none"/>
      <circle cx="21" cy="40" r="3.5" fill="#84cc16" stroke="none"/>
      <circle cx="43" cy="40" r="3.5" fill="#84cc16" stroke="none"/>
      <path d="M32 20L32 8M21 40L10 46M43 40L54 46" stroke="#84cc16" stroke-opacity="0.6" stroke-width="2"/>
      <circle cx="32" cy="8" r="2.5" fill="#84cc16" fill-opacity="0.5" stroke="none"/>
      <circle cx="10" cy="46" r="2.5" fill="#84cc16" fill-opacity="0.5" stroke="none"/>
      <circle cx="54" cy="46" r="2.5" fill="#84cc16" fill-opacity="0.5" stroke="none"/>
    </g>
    <text x="60" y="33" class="font white" font-size="18" font-weight="900" letter-spacing="0.8">WCORE</text>
  </g>

  <g transform="translate(1128 58)" text-anchor="end">
    <text x="0" y="50" class="font white" font-size="56" font-weight="950" letter-spacing="-2.1">Today's WCORE update.</text>
    <text x="0" y="88" class="font muted" font-size="20">10 new GM chains. Cleaner on-chain status.</text>
  </g>

  <g transform="translate(72 178)" filter="url(#shadow)">
    <rect x="0" y="0" width="548" height="376" rx="32" fill="#101319" stroke="#2b323d"/>
    <rect x="28" y="28" width="82" height="82" rx="24" fill="#172015" stroke="#34551f"/>
    <text x="69" y="63" text-anchor="middle" class="font" font-size="31" font-weight="950" fill="url(#accent)">+10</text>
    <text x="69" y="86" text-anchor="middle" class="font" font-size="12" font-weight="850" fill="#a3e635">today</text>
    <text x="132" y="58" class="font white" font-size="30" font-weight="950">New GM chains</text>
    <text x="132" y="88" class="font muted" font-size="15">Ten more places to say GM on-chain.</text>

    <g transform="translate(70 154)" class="font">
      <g transform="translate(0 0)"><circle cx="0" cy="0" r="23" fill="#f5f5f6"/><image href="chains/REDSTONE.webp" x="-19" y="-19" width="38" height="38" clip-path="url(#chainLogoClip)"/><text x="0" y="48" text-anchor="middle" font-size="13" font-weight="850" class="white">Redstone</text></g>
      <g transform="translate(102 0)"><circle cx="0" cy="0" r="23" fill="#f5f5f6"/><image href="chains/APPCHAIN.webp" x="-19" y="-19" width="38" height="38" clip-path="url(#chainLogoClip)"/><text x="0" y="48" text-anchor="middle" font-size="13" font-weight="850" class="white">AppChain</text></g>
      <g transform="translate(204 0)"><circle cx="0" cy="0" r="23" fill="#f5f5f6"/><image href="chains/CAMP.webp" x="-19" y="-19" width="38" height="38" clip-path="url(#chainLogoClip)"/><text x="0" y="48" text-anchor="middle" font-size="13" font-weight="850" class="white">Camp</text></g>
      <g transform="translate(306 0)"><circle cx="0" cy="0" r="23" fill="#f5f5f6"/><image href="chains/DUCKCHAIN.webp" x="-19" y="-19" width="38" height="38" clip-path="url(#chainLogoClip)"/><text x="0" y="48" text-anchor="middle" font-size="13" font-weight="850" class="white">DuckChain</text></g>
      <g transform="translate(408 0)"><circle cx="0" cy="0" r="23" fill="#f5f5f6"/><image href="chains/CYBER.webp" x="-19" y="-19" width="38" height="38" clip-path="url(#chainLogoClip)"/><text x="0" y="48" text-anchor="middle" font-size="13" font-weight="850" class="white">Cyber</text></g>
      <g transform="translate(0 114)"><circle cx="0" cy="0" r="23" fill="#f5f5f6"/><image href="chains/RARI.webp" x="-19" y="-19" width="38" height="38" clip-path="url(#chainLogoClip)"/><text x="0" y="48" text-anchor="middle" font-size="13" font-weight="850" class="white">RARI</text></g>
      <g transform="translate(102 114)"><circle cx="0" cy="0" r="23" fill="#f5f5f6"/><image href="chains/ZIRCUIT.webp" x="-19" y="-19" width="38" height="38" clip-path="url(#chainLogoClip)"/><text x="0" y="48" text-anchor="middle" font-size="13" font-weight="850" class="white">Zircuit</text></g>
      <g transform="translate(204 114)"><circle cx="0" cy="0" r="23" fill="#f5f5f6"/><image href="chains/OPENLEDGER.ico" x="-19" y="-19" width="38" height="38" clip-path="url(#chainLogoClip)"/><text x="0" y="48" text-anchor="middle" font-size="12" font-weight="850" class="white">OpenLedger</text></g>
      <g transform="translate(306 114)"><circle cx="0" cy="0" r="23" fill="#f5f5f6"/><image href="chains/STABLE.webp" x="-19" y="-19" width="38" height="38" clip-path="url(#chainLogoClip)"/><text x="0" y="48" text-anchor="middle" font-size="13" font-weight="850" class="white">STABLE</text></g>
      <g transform="translate(408 114)"><circle cx="0" cy="0" r="23" fill="#f5f5f6"/><image href="chains/TAC.webp" x="-19" y="-19" width="38" height="38" clip-path="url(#chainLogoClip)"/><text x="0" y="48" text-anchor="middle" font-size="13" font-weight="850" class="white">TAC</text></g>
    </g>
  </g>

  <g transform="translate(660 178)" filter="url(#shadow)">
    <rect x="0" y="0" width="468" height="112" rx="30" fill="#101319" stroke="#2b323d"/>
    <rect x="24" y="24" width="56" height="56" rx="17" fill="#172015" stroke="#34551f"/>
    <path d="M38 40H66M38 56H58M38 72H69" stroke="#a3e635" stroke-width="5" stroke-linecap="round"/>
    <text x="98" y="46" class="font white" font-size="27" font-weight="950">Activity tracking polish</text>
    <text x="98" y="76" class="font muted" font-size="15">Cleaner per-chain state after GM, deploys and scans.</text>
  </g>

  <g transform="translate(660 320)" filter="url(#shadow)">
    <rect x="0" y="0" width="468" height="112" rx="30" fill="#101319" stroke="#2b323d"/>
    <rect x="24" y="24" width="56" height="56" rx="17" fill="#172015" stroke="#34551f"/>
    <path d="M37 53L48 64L67 42" fill="none" stroke="#a3e635" stroke-width="5" stroke-linecap="round" stroke-linejoin="round"/>
    <text x="98" y="46" class="font white" font-size="27" font-weight="950">On-chain status sync</text>
    <text x="98" y="76" class="font muted" font-size="15">If DB sync misses a GM tx, WCORE checks the contract.</text>
  </g>

  <g transform="translate(660 462)" filter="url(#shadow)">
    <rect x="0" y="0" width="468" height="92" rx="30" fill="#101319" stroke="#2b323d"/>
    <rect x="24" y="20" width="52" height="52" rx="16" fill="#172015" stroke="#34551f"/>
    <text x="50" y="53" text-anchor="middle" class="font" font-size="25" font-weight="950" fill="url(#accent)">$</text>
    <text x="94" y="42" class="font white" font-size="24" font-weight="950">Native fee symbols</text>
    <text x="94" y="68" class="font muted" font-size="14">Config-backed labels, including OpenLedger as OPEN.</text>
  </g>

  <g transform="translate(72 612)">
    <text x="0" y="0" class="font muted" font-size="18" font-weight="750">Scan wallets, say GM, track everything from one place.</text>
    <text x="1056" y="0" text-anchor="end" class="font" font-size="28" font-weight="950" fill="url(#accent)">wcore.xyz</text>
  </g>
  <rect x="0" y="671" width="1200" height="4" fill="url(#accent)" opacity="0.62"/>
</svg>
