<svg xmlns="http://www.w3.org/2000/svg" viewBox="0 0 1200 675" width="1200" height="675">
  <defs>
    <linearGradient id="bg" x1="0" y1="0" x2="1" y2="1">
      <stop offset="0%" stop-color="#050607"/>
      <stop offset="56%" stop-color="#0d1117"/>
      <stop offset="100%" stop-color="#172016"/>
    </linearGradient>
    <linearGradient id="accent" x1="0" y1="0" x2="1" y2="1">
      <stop offset="0%" stop-color="#bef264"/>
      <stop offset="100%" stop-color="#84cc16"/>
    </linearGradient>
    <radialGradient id="glowA" cx="50%" cy="50%" r="50%">
      <stop offset="0%" stop-color="#84cc16" stop-opacity="0.30"/>
      <stop offset="100%" stop-color="#84cc16" stop-opacity="0"/>
    </radialGradient>
    <radialGradient id="glowB" cx="50%" cy="50%" r="50%">
      <stop offset="0%" stop-color="#22c55e" stop-opacity="0.16"/>
      <stop offset="100%" stop-color="#22c55e" stop-opacity="0"/>
    </radialGradient>
    <filter id="shadow" x="-20%" y="-20%" width="140%" height="140%">
      <feDropShadow dx="0" dy="20" stdDeviation="18" flood-color="#000000" flood-opacity="0.48"/>
    </filter>
    <filter id="softShadow" x="-40%" y="-40%" width="180%" height="180%">
      <feDropShadow dx="0" dy="10" stdDeviation="10" flood-color="#000000" flood-opacity="0.38"/>
    </filter>
    <clipPath id="chainLogoClip"><circle cx="0" cy="0" r="18"/></clipPath>
    <style>
      .font { font-family: Inter, ui-sans-serif, system-ui, -apple-system, BlinkMacSystemFont, "Segoe UI", sans-serif; }
      .muted { fill: #9ca3af; }
      .soft { fill: #d4d4d8; }
      .white { fill: #f5f5f6; }
    </style>
  </defs>

  <rect width="1200" height="675" fill="url(#bg)"/>
  <circle cx="956" cy="98" r="318" fill="url(#glowA)"/>
  <circle cx="132" cy="620" r="294" fill="url(#glowB)"/>
  <g opacity="0.055">
    <path d="M0 112H1200M0 225H1200M0 338H1200M0 451H1200M0 564H1200" stroke="#84cc16"/>
    <path d="M150 0V675M300 0V675M450 0V675M600 0V675M750 0V675M900 0V675M1050 0V675" stroke="#84cc16"/>
  </g>
  <path d="M-70 142C78 48 238 72 392 124C570 184 684 166 806 98C934 28 1070 54 1270 122" fill="none" stroke="#84cc16" stroke-opacity="0.14" stroke-width="2"/>
  <path d="M-40 532C118 478 234 492 374 548C542 616 700 604 820 530C958 445 1066 462 1240 552" fill="none" stroke="#22c55e" stroke-opacity="0.10" stroke-width="2"/>

  <g transform="translate(72 52)">
    <rect x="0" y="0" width="162" height="52" rx="26" fill="#12151b" stroke="#2c333f"/>
    <g transform="translate(12 9) scale(0.53125)" fill="none" stroke-linecap="round" stroke-linejoin="round">
      <path d="M32 8L54 20.5V45.5L32 58L10 45.5V20.5L32 8Z" stroke="#84cc16" stroke-width="4"/>
      <circle cx="32" cy="33" r="5" fill="#84cc16" stroke="none"/>
      <path d="M32 33L32 20M32 33L21 40M32 33L43 40" stroke="#84cc16" stroke-width="3"/>
      <circle cx="32" cy="20" r="3.5" fill="#84cc16" stroke="none"/>
      <circle cx="21" cy="40" r="3.5" fill="#84cc16" stroke="none"/>
      <circle cx="43" cy="40" r="3.5" fill="#84cc16" stroke="none"/>
      <path d="M32 20L32 8M21 40L10 46M43 40L54 46" stroke="#84cc16" stroke-opacity="0.6" stroke-width="2"/>
      <circle cx="32" cy="8" r="2.5" fill="#84cc16" fill-opacity="0.5" stroke="none"/>
      <circle cx="10" cy="46" r="2.5" fill="#84cc16" fill-opacity="0.5" stroke="none"/>
      <circle cx="54" cy="46" r="2.5" fill="#84cc16" fill-opacity="0.5" stroke="none"/>
    </g>
    <text x="60" y="33" class="font white" font-size="18" font-weight="900" letter-spacing="0.8">WCORE</text>
  </g>

  <g transform="translate(1128 58)" text-anchor="end">
    <text x="0" y="50" class="font white" font-size="52" font-weight="950" letter-spacing="-1.9">WCORE got stronger today.</text>
    <text x="0" y="88" class="font muted" font-size="20">40 GM chains. Cleaner data. Faster, safer scans.</text>
  </g>

  <g transform="translate(72 178)" filter="url(#shadow)">
    <rect x="0" y="0" width="548" height="376" rx="32" fill="#101319" stroke="#2b323d"/>
    <circle cx="146" cy="160" r="122" fill="#172015" stroke="#34551f" stroke-width="2"/>
    <circle cx="146" cy="160" r="88" fill="none" stroke="#84cc16" stroke-opacity="0.18" stroke-width="2"/>
    <circle cx="146" cy="160" r="138" fill="none" stroke="#84cc16" stroke-opacity="0.10" stroke-width="2" stroke-dasharray="7 12"/>
    <text x="146" y="172" text-anchor="middle" class="font" font-size="96" font-weight="950" fill="url(#accent)" letter-spacing="-5">40</text>
    <text x="146" y="210" text-anchor="middle" class="font" font-size="18" font-weight="900" fill="#a3e635">live GM chains</text>

    <g opacity="0.95" filter="url(#softShadow)">
      <g transform="translate(68 70)"><circle cx="0" cy="0" r="22" fill="#f5f5f6"/><image href="chains/BASE.png" x="-18" y="-18" width="36" height="36" clip-path="url(#chainLogoClip)"/></g>
      <g transform="translate(228 74)"><circle cx="0" cy="0" r="22" fill="#f5f5f6"/><image href="chains/ARBITRUM_ONE.png" x="-18" y="-18" width="36" height="36" clip-path="url(#chainLogoClip)"/></g>
      <g transform="translate(36 178)"><circle cx="0" cy="0" r="22" fill="#f5f5f6"/><image href="chains/GNOSIS.png" x="-18" y="-18" width="36" height="36" clip-path="url(#chainLogoClip)"/></g>
      <g transform="translate(254 178)"><circle cx="0" cy="0" r="22" fill="#f5f5f6"/><image href="chains/SCROLL.png" x="-18" y="-18" width="36" height="36" clip-path="url(#chainLogoClip)"/></g>
      <g transform="translate(72 274)"><circle cx="0" cy="0" r="22" fill="#f5f5f6"/><image href="chains/SEI.png" x="-18" y="-18" width="36" height="36" clip-path="url(#chainLogoClip)"/></g>
      <g transform="translate(218 270)"><circle cx="0" cy="0" r="22" fill="#f5f5f6"/><image href="chains/TAC.webp" x="-18" y="-18" width="36" height="36" clip-path="url(#chainLogoClip)"/></g>
    </g>

    <text x="316" y="62" class="font white" font-size="31" font-weight="950">40 on-chain</text>
    <text x="316" y="96" class="font white" font-size="31" font-weight="950">GM chains</text>
    <text x="316" y="130" class="font muted" font-size="16">Daily GM tracking now spans</text>
    <text x="316" y="154" class="font muted" font-size="16">40 live chains in one place.</text>
    <g transform="translate(316 176)">
      <rect x="0" y="0" width="174" height="40" rx="20" fill="#172015" stroke="#34551f"/>
      <text x="87" y="26" text-anchor="middle" class="font" font-size="15" font-weight="900" fill="#a3e635">On-chain streaks</text>
    </g>
    <g transform="translate(316 228)">
      <rect x="0" y="0" width="162" height="40" rx="20" fill="#12151b" stroke="#2c333f"/>
      <text x="81" y="26" text-anchor="middle" class="font soft" font-size="15" font-weight="850">Multi-chain GM</text>
    </g>
    <g transform="translate(316 280)">
      <rect x="0" y="0" width="138" height="40" rx="20" fill="#12151b" stroke="#2c333f"/>
      <text x="69" y="26" text-anchor="middle" class="font soft" font-size="15" font-weight="850">Live status</text>
    </g>
  </g>

  <g transform="translate(660 178)" filter="url(#shadow)">
    <rect x="0" y="0" width="468" height="142" rx="30" fill="#101319" stroke="#2b323d"/>
    <rect x="24" y="28" width="64" height="64" rx="19" fill="#172015" stroke="#34551f"/>
    <path d="M42 62L54 74L73 50" fill="none" stroke="#a3e635" stroke-width="5" stroke-linecap="round" stroke-linejoin="round"/>
    <text x="108" y="50" class="font white" font-size="27" font-weight="950">Cleaner token data</text>
    <text x="108" y="80" class="font muted" font-size="15">Sharper scam filtering, token overrides,</text>
    <text x="108" y="104" class="font muted" font-size="15">and RealToken pricing checks.</text>
  </g>

  <g transform="translate(660 350)" filter="url(#shadow)">
    <rect x="0" y="0" width="468" height="142" rx="30" fill="#101319" stroke="#2b323d"/>
    <rect x="24" y="28" width="64" height="64" rx="19" fill="#172015" stroke="#34551f"/>
    <path d="M43 52H70M43 68H61M43 84H74" stroke="#a3e635" stroke-width="5" stroke-linecap="round"/>
    <text x="108" y="50" class="font white" font-size="27" font-weight="950">Faster, safer scans</text>
    <text x="108" y="80" class="font muted" font-size="15">Shared pricing cache, hardened auth,</text>
    <text x="108" y="104" class="font muted" font-size="15">safer backups, smoother scan flow.</text>
  </g>

  <g transform="translate(660 522)" filter="url(#shadow)">
    <rect x="0" y="0" width="468" height="62" rx="30" fill="#172015" stroke="#34551f"/>
    <text x="28" y="40" class="font" font-size="20" font-weight="950" fill="#a3e635">Built for daily wallet clarity across chains.</text>
  </g>

  <g transform="translate(72 612)">
    <text x="0" y="0" class="font muted" font-size="18" font-weight="750">Scan wallets, say GM, track everything from one place.</text>
    <text x="1056" y="0" text-anchor="end" class="font" font-size="28" font-weight="950" fill="url(#accent)">wcore.xyz</text>
  </g>
  <rect x="0" y="671" width="1200" height="4" fill="url(#accent)" opacity="0.62"/>
</svg>
