<svg xmlns="http://www.w3.org/2000/svg" viewBox="0 0 1200 675" width="1200" height="675">
  <defs>
    <linearGradient id="bg" x1="0" y1="0" x2="1" y2="1">
      <stop offset="0%" stop-color="#060708"/>
      <stop offset="54%" stop-color="#0d1014"/>
      <stop offset="100%" stop-color="#171b22"/>
    </linearGradient>
    <linearGradient id="accent" x1="0" y1="0" x2="1" y2="1">
      <stop offset="0%" stop-color="#bef264"/>
      <stop offset="100%" stop-color="#84cc16"/>
    </linearGradient>
    <radialGradient id="glowA" cx="50%" cy="50%" r="50%">
      <stop offset="0%" stop-color="#84cc16" stop-opacity="0.26"/>
      <stop offset="100%" stop-color="#84cc16" stop-opacity="0"/>
    </radialGradient>
    <radialGradient id="glowB" cx="50%" cy="50%" r="50%">
      <stop offset="0%" stop-color="#22c55e" stop-opacity="0.16"/>
      <stop offset="100%" stop-color="#22c55e" stop-opacity="0"/>
    </radialGradient>
    <filter id="softShadow" x="-20%" y="-20%" width="140%" height="140%">
      <feDropShadow dx="0" dy="20" stdDeviation="18" flood-color="#000000" flood-opacity="0.48"/>
    </filter>
    <clipPath id="pillLogo">
      <circle cx="22" cy="22" r="11"/>
    </clipPath>
  </defs>

  <rect width="1200" height="675" fill="url(#bg)"/>
  <circle cx="1030" cy="92" r="300" fill="url(#glowA)"/>
  <circle cx="180" cy="632" r="310" fill="url(#glowB)"/>
  <g opacity="0.052">
    <path d="M0 112H1200M0 225H1200M0 338H1200M0 451H1200M0 564H1200" stroke="#84cc16"/>
    <path d="M150 0V675M300 0V675M450 0V675M600 0V675M750 0V675M900 0V675M1050 0V675" stroke="#84cc16"/>
  </g>
  <path d="M-70 138C74 44 238 72 392 124C570 184 684 166 806 98C934 28 1070 54 1270 122" fill="none" stroke="#84cc16" stroke-opacity="0.14" stroke-width="2"/>

  <g transform="translate(72 52)">
    <rect x="0" y="0" width="162" height="52" rx="26" fill="#12151b" stroke="#2c333f"/>
    <g transform="translate(12 9) scale(0.53125)" fill="none" stroke-linecap="round" stroke-linejoin="round">
      <path d="M32 8L54 20.5V45.5L32 58L10 45.5V20.5L32 8Z" stroke="#84cc16" stroke-width="4"/>
      <circle cx="32" cy="33" r="5" fill="#84cc16" stroke="none"/>
      <path d="M32 33L32 20M32 33L21 40M32 33L43 40" stroke="#84cc16" stroke-width="3"/>
      <circle cx="32" cy="20" r="3.5" fill="#84cc16" stroke="none"/>
      <circle cx="21" cy="40" r="3.5" fill="#84cc16" stroke="none"/>
      <circle cx="43" cy="40" r="3.5" fill="#84cc16" stroke="none"/>
      <path d="M32 20L32 8M21 40L10 46M43 40L54 46" stroke="#84cc16" stroke-opacity="0.6" stroke-width="2"/>
      <circle cx="32" cy="8" r="2.5" fill="#84cc16" fill-opacity="0.5" stroke="none"/>
      <circle cx="10" cy="46" r="2.5" fill="#84cc16" fill-opacity="0.5" stroke="none"/>
      <circle cx="54" cy="46" r="2.5" fill="#84cc16" fill-opacity="0.5" stroke="none"/>
    </g>
    <text x="60" y="33" font-family="Inter, system-ui, -apple-system, sans-serif" font-size="18" font-weight="900" fill="#f4f4f5" letter-spacing="0.8">WCORE</text>
  </g>

  <g transform="translate(1128 58)" text-anchor="end">
    <text x="0" y="50" font-family="Inter, system-ui, -apple-system, sans-serif" font-size="56" font-weight="950" fill="#f5f5f6" letter-spacing="-2.1">This week's perf.</text>
    <text x="0" y="88" font-family="Inter, system-ui, -apple-system, sans-serif" font-size="20" fill="#9ca3af">Same RPCs. Same dataset. Much less waiting.</text>
  </g>

  <g transform="translate(72 188)" filter="url(#softShadow)">
    <rect x="0" y="0" width="624" height="360" rx="32" fill="#101319" stroke="#2b323d"/>

    <text x="36" y="58" font-family="Inter, system-ui, -apple-system, sans-serif" font-size="14" font-weight="900" fill="#9ca3af" letter-spacing="1.6">FULL 110-CHAIN EVM RESCAN</text>
    <text x="36" y="138" font-family="Inter, system-ui, -apple-system, sans-serif" font-size="76" font-weight="900" fill="#6b7280" text-decoration="line-through">172s</text>
    <text x="232" y="138" font-family="Inter, system-ui, -apple-system, sans-serif" font-size="60" font-weight="900" fill="#9ca3af">→</text>
    <text x="312" y="138" font-family="Inter, system-ui, -apple-system, sans-serif" font-size="90" font-weight="950" fill="url(#accent)">74s</text>
    <text x="500" y="138" font-family="Inter, system-ui, -apple-system, sans-serif" font-size="26" font-weight="900" fill="#a3e635">-57%</text>
    <text x="36" y="170" font-family="Inter, system-ui, -apple-system, sans-serif" font-size="13" font-weight="700" fill="#6b7280">Warm cache. Wall time across all EVM chains in one scan.</text>

    <line x1="36" y1="196" x2="588" y2="196" stroke="#2b323d" stroke-width="1"/>

    <text x="36" y="226" font-family="Inter, system-ui, -apple-system, sans-serif" font-size="14" font-weight="900" fill="#9ca3af" letter-spacing="1.6">PER-CHAIN EXAMPLES</text>

    <g transform="translate(36 244)">
      <rect x="0" y="0" width="266" height="44" rx="14" fill="#151a22" stroke="#303845"/>
      <circle cx="22" cy="22" r="13" fill="#f5f5f6"/>
      <image href="chains/BASE.png" x="11" y="11" width="22" height="22" clip-path="url(#pillLogo)"/>
      <text x="44" y="28" font-family="Inter, system-ui, -apple-system, sans-serif" font-size="13" font-weight="900" fill="#f5f5f6">BASE</text>
      <text x="106" y="28" font-family="Inter, system-ui, -apple-system, sans-serif" font-size="13" font-weight="700" fill="#6b7280" text-decoration="line-through">6.7s</text>
      <text x="148" y="28" font-family="Inter, system-ui, -apple-system, sans-serif" font-size="13" font-weight="900" fill="#9ca3af">→</text>
      <text x="166" y="28" font-family="Inter, system-ui, -apple-system, sans-serif" font-size="13" font-weight="950" fill="url(#accent)">699ms</text>
      <text x="252" y="28" text-anchor="end" font-family="Inter, system-ui, -apple-system, sans-serif" font-size="12" font-weight="900" fill="#a3e635">-90%</text>
    </g>
    <g transform="translate(322 244)">
      <rect x="0" y="0" width="266" height="44" rx="14" fill="#151a22" stroke="#303845"/>
      <circle cx="22" cy="22" r="13" fill="#f5f5f6"/>
      <image href="chains/ZERO.png" x="11" y="11" width="22" height="22" clip-path="url(#pillLogo)"/>
      <text x="44" y="28" font-family="Inter, system-ui, -apple-system, sans-serif" font-size="13" font-weight="900" fill="#f5f5f6">ZERO</text>
      <text x="106" y="28" font-family="Inter, system-ui, -apple-system, sans-serif" font-size="13" font-weight="700" fill="#6b7280" text-decoration="line-through">8.5s</text>
      <text x="148" y="28" font-family="Inter, system-ui, -apple-system, sans-serif" font-size="13" font-weight="900" fill="#9ca3af">→</text>
      <text x="166" y="28" font-family="Inter, system-ui, -apple-system, sans-serif" font-size="13" font-weight="950" fill="url(#accent)">1.7s</text>
      <text x="252" y="28" text-anchor="end" font-family="Inter, system-ui, -apple-system, sans-serif" font-size="12" font-weight="900" fill="#a3e635">-80%</text>
    </g>
    <g transform="translate(36 296)">
      <rect x="0" y="0" width="266" height="44" rx="14" fill="#151a22" stroke="#303845"/>
      <circle cx="22" cy="22" r="13" fill="#f5f5f6"/>
      <image href="chains/ZKSYNC_ERA.png" x="11" y="11" width="22" height="22" clip-path="url(#pillLogo)"/>
      <text x="44" y="28" font-family="Inter, system-ui, -apple-system, sans-serif" font-size="13" font-weight="900" fill="#f5f5f6">zkSync</text>
      <text x="106" y="28" font-family="Inter, system-ui, -apple-system, sans-serif" font-size="13" font-weight="700" fill="#6b7280" text-decoration="line-through">3.3s</text>
      <text x="148" y="28" font-family="Inter, system-ui, -apple-system, sans-serif" font-size="13" font-weight="900" fill="#9ca3af">→</text>
      <text x="166" y="28" font-family="Inter, system-ui, -apple-system, sans-serif" font-size="13" font-weight="950" fill="url(#accent)">0.7s</text>
      <text x="252" y="28" text-anchor="end" font-family="Inter, system-ui, -apple-system, sans-serif" font-size="12" font-weight="900" fill="#a3e635">-79%</text>
    </g>
    <g transform="translate(322 296)">
      <rect x="0" y="0" width="266" height="44" rx="14" fill="#151a22" stroke="#303845"/>
      <circle cx="22" cy="22" r="13" fill="#f5f5f6"/>
      <image href="chains/AVALANCHE.png" x="11" y="11" width="22" height="22" clip-path="url(#pillLogo)"/>
      <text x="44" y="28" font-family="Inter, system-ui, -apple-system, sans-serif" font-size="13" font-weight="900" fill="#f5f5f6">Avalanche</text>
      <text x="120" y="28" font-family="Inter, system-ui, -apple-system, sans-serif" font-size="13" font-weight="700" fill="#6b7280" text-decoration="line-through">3.2s</text>
      <text x="160" y="28" font-family="Inter, system-ui, -apple-system, sans-serif" font-size="13" font-weight="900" fill="#9ca3af">→</text>
      <text x="178" y="28" font-family="Inter, system-ui, -apple-system, sans-serif" font-size="13" font-weight="950" fill="url(#accent)">0.6s</text>
      <text x="252" y="28" text-anchor="end" font-family="Inter, system-ui, -apple-system, sans-serif" font-size="12" font-weight="900" fill="#a3e635">-81%</text>
    </g>
  </g>

  <g transform="translate(720 188)" filter="url(#softShadow)">
    <rect x="0" y="0" width="408" height="360" rx="32" fill="#101319" stroke="#2b323d"/>
    <rect x="28" y="28" width="56" height="56" rx="17" fill="#172015" stroke="#34551f"/>
    <text x="56" y="68" text-anchor="middle" font-family="Inter, system-ui, -apple-system, sans-serif" font-size="28" font-weight="950" fill="url(#accent)">+</text>
    <text x="100" y="48" font-family="Inter, system-ui, -apple-system, sans-serif" font-size="26" font-weight="950" fill="#f5f5f6">What changed</text>
    <text x="100" y="76" font-family="Inter, system-ui, -apple-system, sans-serif" font-size="14" fill="#9ca3af">Three shipments, no new RPCs.</text>

    <g transform="translate(28 116)">
      <rect x="0" y="0" width="352" height="68" rx="18" fill="#151a22" stroke="#303845"/>
      <circle cx="28" cy="34" r="6" fill="#84cc16"/>
      <text x="52" y="30" font-family="Inter, system-ui, -apple-system, sans-serif" font-size="16" font-weight="900" fill="#f5f5f6">Incremental cursor</text>
      <text x="52" y="52" font-family="Inter, system-ui, -apple-system, sans-serif" font-size="13" fill="#9ca3af">Per wallet + chain. Rescans only the delta.</text>
    </g>
    <g transform="translate(28 196)">
      <rect x="0" y="0" width="352" height="68" rx="18" fill="#151a22" stroke="#303845"/>
      <circle cx="28" cy="34" r="6" fill="#84cc16"/>
      <text x="52" y="30" font-family="Inter, system-ui, -apple-system, sans-serif" font-size="16" font-weight="900" fill="#f5f5f6">Parallel pricing cascade</text>
      <text x="52" y="52" font-family="Inter, system-ui, -apple-system, sans-serif" font-size="13" fill="#9ca3af">Bulk pre-fetch, then fan out the misses.</text>
    </g>
    <g transform="translate(28 276)">
      <rect x="0" y="0" width="352" height="68" rx="18" fill="#151a22" stroke="#303845"/>
      <circle cx="28" cy="34" r="6" fill="#84cc16"/>
      <text x="52" y="30" font-family="Inter, system-ui, -apple-system, sans-serif" font-size="16" font-weight="900" fill="#f5f5f6">Concurrency alignment</text>
      <text x="52" y="52" font-family="Inter, system-ui, -apple-system, sans-serif" font-size="13" fill="#9ca3af">Scan and batch tuned to the same width.</text>
    </g>
  </g>

  <g transform="translate(72 612)">
    <text x="0" y="0" font-family="Inter, system-ui, -apple-system, sans-serif" font-size="18" font-weight="750" fill="#9ca3af">130 chains tracked. No paywall. Read only.</text>
    <text x="1056" y="0" text-anchor="end" font-family="Inter, system-ui, -apple-system, sans-serif" font-size="28" font-weight="950" fill="url(#accent)">wcore.xyz</text>
  </g>
  <rect x="0" y="671" width="1200" height="4" fill="url(#accent)" opacity="0.62"/>
</svg>
