<svg xmlns="http://www.w3.org/2000/svg" viewBox="0 0 1200 675" width="1200" height="675">
  <defs>
    <linearGradient id="bg" x1="0" y1="0" x2="1" y2="1"><stop offset="0%" stop-color="#070709"/><stop offset="100%" stop-color="#171920"/></linearGradient>
    <linearGradient id="accent" x1="0" y1="0" x2="1" y2="1"><stop offset="0%" stop-color="#a3e635"/><stop offset="100%" stop-color="#84cc16"/></linearGradient>
    <radialGradient id="glow" cx="50%" cy="50%" r="50%"><stop offset="0%" stop-color="#84cc16" stop-opacity="0.22"/><stop offset="100%" stop-color="#84cc16" stop-opacity="0"/></radialGradient>
    <filter id="softShadow" x="-20%" y="-20%" width="140%" height="140%"><feDropShadow dx="0" dy="18" stdDeviation="18" flood-color="#000000" flood-opacity="0.42"/></filter>
  </defs>
  <rect width="1200" height="675" fill="url(#bg)"/>
  <circle cx="970" cy="120" r="260" fill="url(#glow)"/>
  <g opacity="0.045"><path d="M0 135H1200M0 270H1200M0 405H1200M0 540H1200" stroke="#84cc16"/><path d="M300 0V675M600 0V675M900 0V675" stroke="#84cc16"/></g>

  <g transform="translate(72 52)">
    <rect x="0" y="0" width="162" height="52" rx="26" fill="#12141a" stroke="#2b2f38"/>
    <image href="wcore-avatar.png" x="12" y="9" width="34" height="34"/>
    <text x="60" y="33" font-family="Inter, system-ui, -apple-system, sans-serif" font-size="18" font-weight="900" fill="#f4f4f5" letter-spacing="0.8">WCORE</text>
  </g>

  <g transform="translate(78 155)" filter="url(#softShadow)">
    <rect x="0" y="0" width="116" height="116" rx="30" fill="#111319" stroke="#2b2f38"/>
    <text x="58" y="67" text-anchor="middle" font-family="Inter, system-ui, -apple-system, sans-serif" font-size="40" font-weight="950" fill="url(#accent)">GM</text>
    <circle cx="92" cy="25" r="11" fill="#84cc16" opacity="0.22"/>
    <circle cx="25" cy="92" r="9" fill="#84cc16" opacity="0.18"/>
  </g>

  <g transform="translate(230 158)">
    <text x="0" y="0" font-family="Inter, system-ui, -apple-system, sans-serif" font-size="62" font-weight="900" fill="url(#accent)" letter-spacing="-2.2">On chain GM.</text>
    <text x="0" y="70" font-family="Inter, system-ui, -apple-system, sans-serif" font-size="52" font-weight="850" fill="#f5f5f6" letter-spacing="-1.7">Earn from your own contract.</text>
    <text x="0" y="128" font-family="Inter, system-ui, -apple-system, sans-serif" font-size="21" fill="#9ca3af">Deploy a GM contract, receive creator tips, and grow your</text>
    <text x="0" y="160" font-family="Inter, system-ui, -apple-system, sans-serif" font-size="21" fill="#9ca3af">daily streak. Referrals add points when your network joins.</text>
  </g>

  <g transform="translate(80 386)">
    <rect x="0" y="0" width="320" height="106" rx="20" fill="#12141a" stroke="#262a34"/>
    <text x="24" y="38" font-family="Inter, system-ui, -apple-system, sans-serif" font-size="30" font-weight="900" fill="#a3e635">8 chains</text>
    <text x="24" y="70" font-family="Inter, system-ui, -apple-system, sans-serif" font-size="15" fill="#9ca3af">Base, Arbitrum, Optimism,</text>
    <text x="24" y="92" font-family="Inter, system-ui, -apple-system, sans-serif" font-size="15" fill="#9ca3af">Polygon, BSC and more</text>
  </g>
  <g transform="translate(440 386)">
    <rect x="0" y="0" width="320" height="106" rx="20" fill="#12141a" stroke="#262a34"/>
    <text x="24" y="38" font-family="Inter, system-ui, -apple-system, sans-serif" font-size="30" font-weight="900" fill="#a3e635">50% tips</text>
    <text x="24" y="70" font-family="Inter, system-ui, -apple-system, sans-serif" font-size="15" fill="#9ca3af">Creators receive half of each</text>
    <text x="24" y="92" font-family="Inter, system-ui, -apple-system, sans-serif" font-size="15" fill="#9ca3af">GM tip on their contract</text>
  </g>
  <g transform="translate(800 386)">
    <rect x="0" y="0" width="320" height="106" rx="20" fill="#12141a" stroke="#262a34"/>
    <text x="24" y="38" font-family="Inter, system-ui, -apple-system, sans-serif" font-size="30" font-weight="900" fill="#a3e635">10% referral</text>
    <text x="24" y="70" font-family="Inter, system-ui, -apple-system, sans-serif" font-size="15" fill="#9ca3af">Earn bonus points from users</text>
    <text x="24" y="92" font-family="Inter, system-ui, -apple-system, sans-serif" font-size="15" fill="#9ca3af">who join through your link</text>
  </g>

  <g transform="translate(0 558)">
    <text x="600" y="0" text-anchor="middle" font-family="Inter, system-ui, -apple-system, sans-serif" font-size="28" font-weight="900" fill="#a3e635">wcore.xyz</text>
    <text x="600" y="34" text-anchor="middle" font-family="Inter, system-ui, -apple-system, sans-serif" font-size="15" fill="#71717a">scan wallets, say GM, climb the leaderboard</text>
  </g>
  <rect x="0" y="671" width="1200" height="4" fill="url(#accent)" opacity="0.55"/>
</svg>
