<svg xmlns="http://www.w3.org/2000/svg" viewBox="0 0 1200 675" width="1200" height="675">
  <defs>
    <linearGradient id="bg" x1="0" y1="0" x2="1" y2="1">
      <stop offset="0%" stop-color="#060708"/>
      <stop offset="52%" stop-color="#0d1014"/>
      <stop offset="100%" stop-color="#171b22"/>
    </linearGradient>
    <linearGradient id="accent" x1="0" y1="0" x2="1" y2="1">
      <stop offset="0%" stop-color="#bef264"/>
      <stop offset="100%" stop-color="#84cc16"/>
    </linearGradient>
    <linearGradient id="sun" x1="0" y1="0" x2="1" y2="1">
      <stop offset="0%" stop-color="#fef3c7"/>
      <stop offset="45%" stop-color="#bef264"/>
      <stop offset="100%" stop-color="#22c55e"/>
    </linearGradient>
    <radialGradient id="glowA" cx="50%" cy="50%" r="50%">
      <stop offset="0%" stop-color="#84cc16" stop-opacity="0.34"/>
      <stop offset="100%" stop-color="#84cc16" stop-opacity="0"/>
    </radialGradient>
    <radialGradient id="glowB" cx="50%" cy="50%" r="50%">
      <stop offset="0%" stop-color="#22c55e" stop-opacity="0.16"/>
      <stop offset="100%" stop-color="#22c55e" stop-opacity="0"/>
    </radialGradient>
    <filter id="softShadow" x="-20%" y="-20%" width="140%" height="140%">
      <feDropShadow dx="0" dy="22" stdDeviation="20" flood-color="#000000" flood-opacity="0.52"/>
    </filter>
    <filter id="orbShadow" x="-35%" y="-35%" width="170%" height="170%">
      <feDropShadow dx="0" dy="12" stdDeviation="10" flood-color="#000000" flood-opacity="0.38"/>
    </filter>
    <clipPath id="roundLogo">
      <circle cx="28" cy="28" r="21"/>
    </clipPath>
    <clipPath id="smallLogo">
      <circle cx="28" cy="28" r="17"/>
    </clipPath>
  </defs>

  <rect width="1200" height="675" fill="url(#bg)"/>
  <circle cx="928" cy="188" r="360" fill="url(#glowA)"/>
  <circle cx="155" cy="616" r="300" fill="url(#glowB)"/>
  <g opacity="0.052">
    <path d="M0 112H1200M0 225H1200M0 338H1200M0 451H1200M0 564H1200" stroke="#84cc16"/>
    <path d="M150 0V675M300 0V675M450 0V675M600 0V675M750 0V675M900 0V675M1050 0V675" stroke="#84cc16"/>
  </g>
  <path d="M-86 166C78 68 260 86 424 146C590 206 716 190 846 110C976 30 1098 48 1282 128" fill="none" stroke="#84cc16" stroke-opacity="0.13" stroke-width="2"/>
  <path d="M-80 526C110 472 260 500 420 555C590 614 764 620 932 555C1062 504 1160 506 1280 540" fill="none" stroke="#22c55e" stroke-opacity="0.10" stroke-width="2"/>

  <g transform="translate(72 52)">
    <rect x="0" y="0" width="162" height="52" rx="26" fill="#12151b" stroke="#2c333f"/>
    <g transform="translate(12 9) scale(0.53125)" fill="none" stroke-linecap="round" stroke-linejoin="round">
      <path d="M32 8L54 20.5V45.5L32 58L10 45.5V20.5L32 8Z" stroke="#84cc16" stroke-width="4"/>
      <circle cx="32" cy="33" r="5" fill="#84cc16" stroke="none"/>
      <path d="M32 33L32 20M32 33L21 40M32 33L43 40" stroke="#84cc16" stroke-width="3"/>
      <circle cx="32" cy="20" r="3.5" fill="#84cc16" stroke="none"/>
      <circle cx="21" cy="40" r="3.5" fill="#84cc16" stroke="none"/>
      <circle cx="43" cy="40" r="3.5" fill="#84cc16" stroke="none"/>
      <path d="M32 20L32 8M21 40L10 46M43 40L54 46" stroke="#84cc16" stroke-opacity="0.6" stroke-width="2"/>
      <circle cx="32" cy="8" r="2.5" fill="#84cc16" fill-opacity="0.5" stroke="none"/>
      <circle cx="10" cy="46" r="2.5" fill="#84cc16" fill-opacity="0.5" stroke="none"/>
      <circle cx="54" cy="46" r="2.5" fill="#84cc16" fill-opacity="0.5" stroke="none"/>
    </g>
    <text x="60" y="33" font-family="Inter, system-ui, -apple-system, sans-serif" font-size="18" font-weight="900" fill="#f4f4f5" letter-spacing="0.8">WCORE</text>
  </g>

  <g transform="translate(72 168)" filter="url(#softShadow)">
    <rect x="0" y="0" width="516" height="342" rx="34" fill="#101319" stroke="#2b323d"/>
    <text x="36" y="72" font-family="Inter, system-ui, -apple-system, sans-serif" font-size="74" font-weight="950" fill="#f5f5f6" letter-spacing="-3.4">GM,</text>
    <text x="36" y="144" font-family="Inter, system-ui, -apple-system, sans-serif" font-size="74" font-weight="950" fill="url(#accent)" letter-spacing="-3.8">multichain.</text>
    <text x="38" y="197" font-family="Inter, system-ui, -apple-system, sans-serif" font-size="24" font-weight="760" fill="#d4d4d8">Say GM. Keep the streak.</text>
    <text x="38" y="232" font-family="Inter, system-ui, -apple-system, sans-serif" font-size="24" font-weight="760" fill="#9ca3af">Track the morning mess from one place.</text>
    <g transform="translate(36 274)">
      <rect x="0" y="0" width="92" height="42" rx="21" fill="#172015" stroke="#34551f"/>
      <text x="46" y="27" text-anchor="middle" font-family="Inter, system-ui, -apple-system, sans-serif" font-size="16" font-weight="900" fill="#f5f5f6">130+</text>
      <rect x="110" y="0" width="108" height="42" rx="21" fill="#172015" stroke="#34551f"/>
      <text x="164" y="27" text-anchor="middle" font-family="Inter, system-ui, -apple-system, sans-serif" font-size="16" font-weight="850" fill="#a3e635">21x GM</text>
      <rect x="236" y="0" width="120" height="42" rx="21" fill="#151a22" stroke="#303845"/>
      <text x="296" y="27" text-anchor="middle" font-family="Inter, system-ui, -apple-system, sans-serif" font-size="16" font-weight="850" fill="#f5f5f6">wcore.xyz</text>
    </g>
  </g>

  <g transform="translate(646 126)" filter="url(#softShadow)">
    <rect x="0" y="0" width="482" height="428" rx="38" fill="#101319" stroke="#2b323d"/>
    <ellipse cx="241" cy="222" rx="216" ry="164" fill="#0b0e13" stroke="#243019" stroke-width="2"/>
    <ellipse cx="241" cy="222" rx="146" ry="108" fill="none" stroke="#84cc16" stroke-opacity="0.20" stroke-width="2" stroke-dasharray="5 11"/>
    <ellipse cx="241" cy="222" rx="220" ry="168" fill="none" stroke="#22c55e" stroke-opacity="0.12" stroke-width="2"/>
    <g opacity="0.34" stroke="#bef264" stroke-width="4" stroke-linecap="round">
      <path d="M241 91V52"/>
      <path d="M241 353V392"/>
      <path d="M110 222H72"/>
      <path d="M372 222H410"/>
      <path d="M148 129L120 101"/>
      <path d="M334 129L362 101"/>
      <path d="M148 315L120 343"/>
      <path d="M334 315L362 343"/>
    </g>
    <circle cx="241" cy="222" r="72" fill="#172015" opacity="0.72"/>
    <circle cx="241" cy="222" r="58" fill="url(#sun)" opacity="0.98"/>
    <path d="M189 239C207 229 224 228 241 237C260 246 279 246 293 236" fill="none" stroke="#071006" stroke-opacity="0.16" stroke-width="4" stroke-linecap="round"/>
    <text x="241" y="236" text-anchor="middle" font-family="Inter, system-ui, -apple-system, sans-serif" font-size="42" font-weight="950" fill="#071006">GM</text>

    <g filter="url(#orbShadow)">
      <g transform="translate(217 24)"><circle cx="28" cy="28" r="25" fill="#f5f5f6"/><circle cx="28" cy="28" r="25" fill="none" stroke="#303845"/><image href="https://raw.githubusercontent.com/trustwallet/assets/master/blockchains/base/info/logo.png" x="6" y="6" width="44" height="44" clip-path="url(#roundLogo)"/></g>
      <g transform="translate(314 42)"><circle cx="28" cy="28" r="24" fill="#f5f5f6"/><circle cx="28" cy="28" r="24" fill="none" stroke="#303845"/><image href="https://raw.githubusercontent.com/trustwallet/assets/master/blockchains/arbitrum/info/logo.png" x="7" y="7" width="42" height="42" clip-path="url(#roundLogo)"/></g>
      <g transform="translate(384 98)"><circle cx="28" cy="28" r="24" fill="#f5f5f6"/><circle cx="28" cy="28" r="24" fill="none" stroke="#303845"/><image href="https://raw.githubusercontent.com/trustwallet/assets/master/blockchains/optimism/info/logo.png" x="7" y="7" width="42" height="42" clip-path="url(#roundLogo)"/></g>
      <g transform="translate(414 184)"><circle cx="28" cy="28" r="24" fill="#f5f5f6"/><circle cx="28" cy="28" r="24" fill="none" stroke="#303845"/><image href="https://raw.githubusercontent.com/trustwallet/assets/master/blockchains/polygon/info/logo.png" x="7" y="7" width="42" height="42" clip-path="url(#roundLogo)"/></g>
      <g transform="translate(384 274)"><circle cx="28" cy="28" r="24" fill="#f5f5f6"/><circle cx="28" cy="28" r="24" fill="none" stroke="#303845"/><image href="https://raw.githubusercontent.com/trustwallet/assets/master/blockchains/smartchain/info/logo.png" x="7" y="7" width="42" height="42" clip-path="url(#roundLogo)"/></g>
      <g transform="translate(314 334)"><circle cx="28" cy="28" r="24" fill="#f5f5f6"/><circle cx="28" cy="28" r="24" fill="none" stroke="#303845"/><image href="https://raw.githubusercontent.com/trustwallet/assets/master/blockchains/avalanchec/info/logo.png" x="7" y="7" width="42" height="42" clip-path="url(#roundLogo)"/></g>
      <g transform="translate(217 352)"><circle cx="28" cy="28" r="24" fill="#f5f5f6"/><circle cx="28" cy="28" r="24" fill="none" stroke="#303845"/><image href="https://raw.githubusercontent.com/trustwallet/assets/master/blockchains/xdai/info/logo.png" x="7" y="7" width="42" height="42" clip-path="url(#roundLogo)"/></g>
      <g transform="translate(112 330)"><circle cx="28" cy="28" r="24" fill="#f5f5f6"/><circle cx="28" cy="28" r="24" fill="none" stroke="#303845"/><image href="https://icons.llamao.fi/icons/chains/rsz_soneium.jpg" x="7" y="7" width="42" height="42" clip-path="url(#roundLogo)"/></g>
      <g transform="translate(46 274)"><circle cx="28" cy="28" r="24" fill="#f5f5f6"/><circle cx="28" cy="28" r="24" fill="none" stroke="#303845"/><image href="https://icons.llamao.fi/icons/chains/rsz_zksync-era.jpg" x="7" y="7" width="42" height="42" clip-path="url(#roundLogo)"/></g>
      <g transform="translate(22 184)"><circle cx="28" cy="28" r="24" fill="#f5f5f6"/><circle cx="28" cy="28" r="24" fill="none" stroke="#303845"/><image href="https://icons.llamao.fi/icons/chains/rsz_scroll.jpg" x="7" y="7" width="42" height="42" clip-path="url(#roundLogo)"/></g>
      <g transform="translate(46 98)"><circle cx="28" cy="28" r="24" fill="#f5f5f6"/><circle cx="28" cy="28" r="24" fill="none" stroke="#303845"/><image href="https://icons.llamao.fi/icons/chains/rsz_linea.jpg" x="7" y="7" width="42" height="42" clip-path="url(#roundLogo)"/></g>
      <g transform="translate(112 42)"><circle cx="28" cy="28" r="24" fill="#f5f5f6"/><circle cx="28" cy="28" r="24" fill="none" stroke="#303845"/><image href="https://icons.llamao.fi/icons/chains/rsz_mantle.jpg" x="7" y="7" width="42" height="42" clip-path="url(#roundLogo)"/></g>
      <g transform="translate(292 106)"><circle cx="28" cy="28" r="24" fill="#f5f5f6"/><circle cx="28" cy="28" r="24" fill="none" stroke="#303845"/><image href="https://raw.githubusercontent.com/trustwallet/assets/master/blockchains/blast/info/logo.png" x="7" y="7" width="42" height="42" clip-path="url(#roundLogo)"/></g>
      <g transform="translate(331 206)"><circle cx="28" cy="28" r="24" fill="#f5f5f6"/><circle cx="28" cy="28" r="24" fill="none" stroke="#303845"/><image href="https://raw.githubusercontent.com/trustwallet/assets/master/blockchains/celo/info/logo.png" x="7" y="7" width="42" height="42" clip-path="url(#roundLogo)"/></g>
      <g transform="translate(258 292)"><circle cx="28" cy="28" r="24" fill="#f5f5f6"/><circle cx="28" cy="28" r="24" fill="none" stroke="#303845"/><image href="https://icons.llamao.fi/icons/chains/rsz_world-chain.jpg" x="7" y="7" width="42" height="42" clip-path="url(#roundLogo)"/></g>
      <g transform="translate(144 278)"><circle cx="28" cy="28" r="24" fill="#f5f5f6"/><circle cx="28" cy="28" r="24" fill="none" stroke="#303845"/><image href="https://icons.llamao.fi/icons/chains/rsz_unichain.jpg" x="7" y="7" width="42" height="42" clip-path="url(#roundLogo)"/></g>
      <g transform="translate(104 206)"><circle cx="28" cy="28" r="24" fill="#f5f5f6"/><circle cx="28" cy="28" r="24" fill="none" stroke="#303845"/><image href="https://icons.llamao.fi/icons/chains/rsz_berachain.jpg" x="7" y="7" width="42" height="42" clip-path="url(#roundLogo)"/></g>
      <g transform="translate(152 106)"><circle cx="28" cy="28" r="24" fill="#f5f5f6"/><circle cx="28" cy="28" r="24" fill="none" stroke="#303845"/><image href="https://icons.llamao.fi/icons/chains/rsz_ink.jpg" x="7" y="7" width="42" height="42" clip-path="url(#roundLogo)"/></g>
    </g>
  </g>

  <g transform="translate(72 612)">
    <text x="0" y="0" font-family="Inter, system-ui, -apple-system, sans-serif" font-size="18" font-weight="750" fill="#9ca3af">Good morning to every chain you forgot you had assets on.</text>
    <text x="1056" y="0" text-anchor="end" font-family="Inter, system-ui, -apple-system, sans-serif" font-size="28" font-weight="950" fill="url(#accent)">@WCORExyz</text>
  </g>
  <rect x="0" y="671" width="1200" height="4" fill="url(#accent)" opacity="0.62"/>
</svg>
