<svg xmlns="http://www.w3.org/2000/svg" viewBox="0 0 1200 675" width="1200" height="675">
  <defs>
    <linearGradient id="bg" x1="0" y1="0" x2="1" y2="1">
      <stop offset="0%" stop-color="#050607"/>
      <stop offset="58%" stop-color="#0c1017"/>
      <stop offset="100%" stop-color="#172313"/>
    </linearGradient>
    <linearGradient id="accent" x1="0" y1="0" x2="1" y2="1">
      <stop offset="0%" stop-color="#bef264"/>
      <stop offset="100%" stop-color="#84cc16"/>
    </linearGradient>
    <linearGradient id="cyan" x1="0" y1="0" x2="1" y2="1">
      <stop offset="0%" stop-color="#67e8f9"/>
      <stop offset="100%" stop-color="#22c55e"/>
    </linearGradient>
    <linearGradient id="violet" x1="0" y1="0" x2="1" y2="1">
      <stop offset="0%" stop-color="#c4b5fd"/>
      <stop offset="100%" stop-color="#8b5cf6"/>
    </linearGradient>
    <radialGradient id="glowA" cx="50%" cy="50%" r="50%">
      <stop offset="0%" stop-color="#84cc16" stop-opacity="0.30"/>
      <stop offset="100%" stop-color="#84cc16" stop-opacity="0"/>
    </radialGradient>
    <radialGradient id="glowB" cx="50%" cy="50%" r="50%">
      <stop offset="0%" stop-color="#67e8f9" stop-opacity="0.13"/>
      <stop offset="100%" stop-color="#67e8f9" stop-opacity="0"/>
    </radialGradient>
    <filter id="shadow" x="-20%" y="-20%" width="140%" height="140%">
      <feDropShadow dx="0" dy="20" stdDeviation="18" flood-color="#000000" flood-opacity="0.44"/>
    </filter>
    <filter id="softShadow" x="-25%" y="-25%" width="150%" height="150%">
      <feDropShadow dx="0" dy="10" stdDeviation="10" flood-color="#000000" flood-opacity="0.32"/>
    </filter>
    <style>
      .font { font-family: Inter, ui-sans-serif, system-ui, -apple-system, BlinkMacSystemFont, "Segoe UI", sans-serif; }
      .white { fill: #f5f5f6; }
      .soft { fill: #d4d4d8; }
      .muted { fill: #9ca3af; }
      .lime { fill: #a3e635; }
    </style>
  </defs>

  <rect width="1200" height="675" fill="url(#bg)"/>
  <circle cx="1030" cy="72" r="330" fill="url(#glowA)"/>
  <circle cx="146" cy="620" r="330" fill="url(#glowB)"/>
  <g opacity="0.055">
    <path d="M0 112H1200M0 225H1200M0 338H1200M0 451H1200M0 564H1200" stroke="#84cc16"/>
    <path d="M150 0V675M300 0V675M450 0V675M600 0V675M750 0V675M900 0V675M1050 0V675" stroke="#84cc16"/>
  </g>
  <path d="M-70 124C82 52 246 74 402 124C570 178 690 158 828 88C970 16 1088 52 1260 118" fill="none" stroke="#84cc16" stroke-opacity="0.14" stroke-width="2"/>
  <path d="M-60 540C120 470 246 500 402 552C556 604 718 598 856 520C998 446 1080 468 1240 548" fill="none" stroke="#22c55e" stroke-opacity="0.10" stroke-width="2"/>

  <g transform="translate(72 52)">
    <rect x="0" y="0" width="162" height="52" rx="26" fill="#12151b" stroke="#2c333f"/>
    <g transform="translate(12 9) scale(0.53125)" fill="none" stroke-linecap="round" stroke-linejoin="round">
      <path d="M32 8L54 20.5V45.5L32 58L10 45.5V20.5L32 8Z" stroke="#84cc16" stroke-width="4"/>
      <circle cx="32" cy="33" r="5" fill="#84cc16" stroke="none"/>
      <path d="M32 33L32 20M32 33L21 40M32 33L43 40" stroke="#84cc16" stroke-width="3"/>
      <circle cx="32" cy="20" r="3.5" fill="#84cc16" stroke="none"/>
      <circle cx="21" cy="40" r="3.5" fill="#84cc16" stroke="none"/>
      <circle cx="43" cy="40" r="3.5" fill="#84cc16" stroke="none"/>
      <path d="M32 20L32 8M21 40L10 46M43 40L54 46" stroke="#84cc16" stroke-opacity="0.6" stroke-width="2"/>
      <circle cx="32" cy="8" r="2.5" fill="#84cc16" fill-opacity="0.5" stroke="none"/>
      <circle cx="10" cy="46" r="2.5" fill="#84cc16" fill-opacity="0.5" stroke="none"/>
      <circle cx="54" cy="46" r="2.5" fill="#84cc16" fill-opacity="0.5" stroke="none"/>
    </g>
    <text x="60" y="33" class="font white" font-size="18" font-weight="900" letter-spacing="0.8">WCORE</text>
  </g>

  <g transform="translate(812 54)">
    <rect x="0" y="0" width="316" height="52" rx="26" fill="#12151b" stroke="#2c333f"/>
    <circle cx="29" cy="26" r="6" fill="#84cc16"/>
    <text x="50" y="32" class="font lime" font-size="14" font-weight="950" letter-spacing="1.6">READ-ONLY</text>
    <rect x="160" y="13" width="1" height="26" fill="#2c3744"/>
    <text x="184" y="32" class="font white" font-size="14" font-weight="950" letter-spacing="0.8">180+ CHAINS</text>
  </g>

  <g transform="translate(72 164)">
    <text x="0" y="0" class="font white" font-size="62" font-weight="950" letter-spacing="-2.2">Your crypto is</text>
    <text x="0" y="68" class="font white" font-size="62" font-weight="950" letter-spacing="-2.2">not on one chain.</text>
    <text x="2" y="118" class="font muted" font-size="23" font-weight="680">WCORE maps wallets across 180+ chains.</text>
  </g>

  <g transform="translate(72 322)" filter="url(#shadow)">
    <rect x="0" y="0" width="1056" height="222" rx="34" fill="#0b0f15" stroke="#334155"/>
    <rect x="28" y="28" width="1000" height="166" rx="26" fill="#0f1722" stroke="#25303c"/>
    <path d="M192 111H864" stroke="#84cc16" stroke-opacity="0.13" stroke-width="2" stroke-linecap="round"/>
    <circle cx="120" cy="111" r="4" fill="#84cc16" fill-opacity="0.34"/>
    <circle cx="451" cy="111" r="4" fill="#84cc16" fill-opacity="0.34"/>
    <circle cx="782" cy="111" r="4" fill="#84cc16" fill-opacity="0.34"/>

    <g transform="translate(72 66)">
      <rect x="0" y="0" width="250" height="90" rx="24" fill="#141a23" stroke="#344052"/>
      <circle cx="48" cy="45" r="28" fill="#0b0f15" stroke="#3a4655" stroke-width="2"/>
      <path d="M48 22L35 46L48 54L61 46L48 22Z" fill="#f5f5f6"/>
      <path d="M48 54L35 46L48 68L61 46L48 54Z" fill="#94a3b8"/>
      <text x="94" y="38" class="font white" font-size="22" font-weight="950">EVM</text>
      <text x="94" y="64" class="font muted" font-size="14">Ethereum · Base · Gnosis</text>
    </g>

    <g transform="translate(403 66)">
      <rect x="0" y="0" width="250" height="90" rx="24" fill="#141a23" stroke="#344052"/>
      <circle cx="48" cy="45" r="28" fill="#0b0f15" stroke="#3a4655" stroke-width="2"/>
      <g transform="translate(30 29)">
        <path d="M5 0H35L29 7H0L5 0Z" fill="#67e8f9"/>
        <path d="M0 13H30L35 20H5L0 13Z" fill="#a3e635"/>
        <path d="M5 26H35L30 33H0L5 26Z" fill="#c084fc"/>
      </g>
      <text x="94" y="38" class="font white" font-size="22" font-weight="950">Solana</text>
      <text x="94" y="64" class="font muted" font-size="14">SPL tokens and native</text>
    </g>

    <g transform="translate(734 66)">
      <rect x="0" y="0" width="250" height="90" rx="24" fill="#141a23" stroke="#344052"/>
      <circle cx="48" cy="45" r="28" fill="#0b0f15" stroke="#3a4655" stroke-width="2"/>
      <g transform="translate(48 45)" fill="none" stroke="#c4b5fd" stroke-width="2.4">
        <ellipse cx="0" cy="0" rx="18" ry="6"/>
        <ellipse cx="0" cy="0" rx="18" ry="6" transform="rotate(60)"/>
        <ellipse cx="0" cy="0" rx="18" ry="6" transform="rotate(120)"/>
        <circle cx="0" cy="0" r="3.4" fill="#c4b5fd" stroke="none"/>
      </g>
      <text x="94" y="38" class="font white" font-size="22" font-weight="950">Cosmos</text>
      <text x="94" y="64" class="font muted" font-size="14">IBC zones in one view</text>
    </g>

    <g transform="translate(440 184)">
      <rect x="0" y="0" width="176" height="26" rx="13" fill="#162015" stroke="#3d5f24"/>
      <text x="88" y="18" text-anchor="middle" class="font lime" font-size="11" font-weight="950" letter-spacing="1.4">ONE CLEAN MAP</text>
    </g>
  </g>

  <g transform="translate(72 612)">
    <text x="0" y="0" class="font muted" font-size="18" font-weight="750">Paste a wallet. See native balances, tokens, and long-tail chains in one dashboard.</text>
    <text x="1056" y="0" text-anchor="end" class="font" font-size="30" font-weight="950" fill="url(#accent)">wcore.xyz</text>
  </g>
  <rect x="0" y="671" width="1200" height="4" fill="url(#accent)" opacity="0.66"/>
</svg>
