<svg xmlns="http://www.w3.org/2000/svg" viewBox="0 0 1200 675" width="1200" height="675">
  <defs>
    <linearGradient id="bg" x1="0" y1="0" x2="1" y2="1">
      <stop offset="0%" stop-color="#060708"/>
      <stop offset="54%" stop-color="#0d1014"/>
      <stop offset="100%" stop-color="#171b22"/>
    </linearGradient>
    <linearGradient id="accent" x1="0" y1="0" x2="1" y2="1">
      <stop offset="0%" stop-color="#bef264"/>
      <stop offset="100%" stop-color="#84cc16"/>
    </linearGradient>
    <linearGradient id="warn" x1="0" y1="0" x2="1" y2="1">
      <stop offset="0%" stop-color="#fca5a5"/>
      <stop offset="100%" stop-color="#ef4444"/>
    </linearGradient>
    <radialGradient id="glowA" cx="50%" cy="50%" r="50%">
      <stop offset="0%" stop-color="#84cc16" stop-opacity="0.22"/>
      <stop offset="100%" stop-color="#84cc16" stop-opacity="0"/>
    </radialGradient>
    <radialGradient id="glowRed" cx="50%" cy="50%" r="50%">
      <stop offset="0%" stop-color="#ef4444" stop-opacity="0.22"/>
      <stop offset="100%" stop-color="#ef4444" stop-opacity="0"/>
    </radialGradient>
    <filter id="softShadow" x="-20%" y="-20%" width="140%" height="140%">
      <feDropShadow dx="0" dy="22" stdDeviation="20" flood-color="#000000" flood-opacity="0.52"/>
    </filter>
  </defs>

  <rect width="1200" height="675" fill="url(#bg)"/>
  <circle cx="220" cy="200" r="340" fill="url(#glowRed)"/>
  <circle cx="1020" cy="540" r="340" fill="url(#glowA)"/>
  <g opacity="0.052">
    <path d="M0 112H1200M0 225H1200M0 338H1200M0 451H1200M0 564H1200" stroke="#84cc16"/>
    <path d="M150 0V675M300 0V675M450 0V675M600 0V675M750 0V675M900 0V675M1050 0V675" stroke="#84cc16"/>
  </g>

  <g transform="translate(72 52)">
    <rect x="0" y="0" width="162" height="52" rx="26" fill="#12151b" stroke="#2c333f"/>
    <g transform="translate(12 9) scale(0.53125)" fill="none" stroke-linecap="round" stroke-linejoin="round">
      <path d="M32 8L54 20.5V45.5L32 58L10 45.5V20.5L32 8Z" stroke="#84cc16" stroke-width="4"/>
      <circle cx="32" cy="33" r="5" fill="#84cc16" stroke="none"/>
      <path d="M32 33L32 20M32 33L21 40M32 33L43 40" stroke="#84cc16" stroke-width="3"/>
      <circle cx="32" cy="20" r="3.5" fill="#84cc16" stroke="none"/>
      <circle cx="21" cy="40" r="3.5" fill="#84cc16" stroke="none"/>
      <circle cx="43" cy="40" r="3.5" fill="#84cc16" stroke="none"/>
      <path d="M32 20L32 8M21 40L10 46M43 40L54 46" stroke="#84cc16" stroke-opacity="0.6" stroke-width="2"/>
      <circle cx="32" cy="8" r="2.5" fill="#84cc16" fill-opacity="0.5" stroke="none"/>
      <circle cx="10" cy="46" r="2.5" fill="#84cc16" fill-opacity="0.5" stroke="none"/>
      <circle cx="54" cy="46" r="2.5" fill="#84cc16" fill-opacity="0.5" stroke="none"/>
    </g>
    <text x="60" y="33" font-family="Inter, system-ui, -apple-system, sans-serif" font-size="18" font-weight="900" fill="#f4f4f5" letter-spacing="0.8">WCORE</text>
  </g>

  <g transform="translate(966 52)">
    <rect x="0" y="0" width="162" height="52" rx="26" fill="#12151b" stroke="#2c333f"/>
    <circle cx="26" cy="26" r="6" fill="#ef4444"/>
    <circle cx="26" cy="26" r="11" fill="none" stroke="#ef4444" stroke-opacity="0.35" stroke-width="1.5"/>
    <text x="48" y="33" font-family="Inter, system-ui, -apple-system, sans-serif" font-size="14" font-weight="900" fill="#f4f4f5" letter-spacing="1.2">DATA TRUST</text>
  </g>

  <g transform="translate(72 168)">
    <text x="0" y="80" font-family="Inter, system-ui, -apple-system, sans-serif" font-size="80" font-weight="950" fill="#f5f5f6" letter-spacing="-3.4">Your portfolio</text>
    <text x="0" y="164" font-family="Inter, system-ui, -apple-system, sans-serif" font-size="80" font-weight="950" fill="#f5f5f6" letter-spacing="-3.4">might be <tspan fill="url(#warn)">wrong</tspan>.</text>
    <text x="2" y="212" font-family="Inter, system-ui, -apple-system, sans-serif" font-size="22" font-weight="780" fill="#9ca3af">Right now. And most trackers will not tell you.</text>
  </g>

  <g transform="translate(72 416)" filter="url(#softShadow)">
    <rect x="0" y="0" width="516" height="172" rx="28" fill="#101319" stroke="#2b323d"/>
    <text x="24" y="38" font-family="Inter, system-ui, -apple-system, sans-serif" font-size="14" font-weight="900" fill="#fca5a5" letter-spacing="1.6">MOST TRACKERS</text>

    <g transform="translate(24 56)">
      <rect x="0" y="0" width="80" height="44" rx="14" fill="#241015" stroke="#7f1d1d"/>
      <circle cx="40" cy="22" r="11" fill="#1f0d0d" stroke="#7f1d1d" stroke-width="2"/>
      <circle cx="40" cy="22" r="4" fill="#ef4444"/>
    </g>
    <text x="120" y="80" font-family="Inter, system-ui, -apple-system, sans-serif" font-size="22" font-weight="950" fill="#f5f5f6">1 data source per chain.</text>
    <text x="120" y="104" font-family="Inter, system-ui, -apple-system, sans-serif" font-size="14" font-weight="780" fill="#9ca3af">If it breaks silently, your balance freezes.</text>

    <g transform="translate(24 124)">
      <rect x="0" y="0" width="468" height="32" rx="16" fill="#1f0d0d" stroke="#7f1d1d"/>
      <text x="20" y="22" font-family="Inter, system-ui, -apple-system, sans-serif" font-size="13" font-weight="900" fill="#ef4444">x No warning. You see yesterday's number.</text>
    </g>
  </g>

  <g transform="translate(612 416)" filter="url(#softShadow)">
    <rect x="0" y="0" width="516" height="172" rx="28" fill="#101319" stroke="#2b323d"/>
    <text x="24" y="38" font-family="Inter, system-ui, -apple-system, sans-serif" font-size="14" font-weight="900" fill="#a3e635" letter-spacing="1.6">WCORE</text>

    <g transform="translate(24 56)">
      <rect x="0" y="0" width="80" height="44" rx="14" fill="#0d1f0d" stroke="#3f6212"/>
      <circle cx="18" cy="22" r="6" fill="#84cc16"/>
      <circle cx="38" cy="14" r="6" fill="#84cc16"/>
      <circle cx="38" cy="30" r="6" fill="#84cc16"/>
      <circle cx="58" cy="22" r="6" fill="#84cc16"/>
      <path d="M18 22L38 14L58 22L38 30Z" stroke="#a3e635" stroke-opacity="0.55" stroke-width="1.2" fill="none"/>
    </g>
    <text x="120" y="80" font-family="Inter, system-ui, -apple-system, sans-serif" font-size="22" font-weight="950" fill="#f5f5f6">3 to 4 sources, cross-checked.</text>
    <text x="120" y="104" font-family="Inter, system-ui, -apple-system, sans-serif" font-size="14" font-weight="780" fill="#9ca3af">If they disagree, the old value stays.</text>

    <g transform="translate(24 124)">
      <rect x="0" y="0" width="468" height="32" rx="16" fill="#0d1f0d" stroke="#3f6212"/>
      <text x="20" y="22" font-family="Inter, system-ui, -apple-system, sans-serif" font-size="13" font-weight="900" fill="#a3e635">+ Caught and flagged across 130 chains.</text>
    </g>
  </g>

  <g transform="translate(72 624)">
    <text x="0" y="0" font-family="Inter, system-ui, -apple-system, sans-serif" font-size="18" font-weight="750" fill="#9ca3af">Read only. No paywall. No wallet connection.</text>
    <text x="1056" y="0" text-anchor="end" font-family="Inter, system-ui, -apple-system, sans-serif" font-size="28" font-weight="950" fill="url(#accent)">wcore.xyz</text>
  </g>
  <rect x="0" y="671" width="1200" height="4" fill="url(#accent)" opacity="0.62"/>
</svg>
