<svg xmlns="http://www.w3.org/2000/svg" viewBox="0 0 1200 675" width="1200" height="675">
  <defs>
    <linearGradient id="bg" x1="0" y1="0" x2="1" y2="1"><stop offset="0%" stop-color="#070709"/><stop offset="100%" stop-color="#171920"/></linearGradient>
    <linearGradient id="accent" x1="0" y1="0" x2="1" y2="1"><stop offset="0%" stop-color="#a3e635"/><stop offset="100%" stop-color="#84cc16"/></linearGradient>
    <radialGradient id="glow" cx="50%" cy="50%" r="50%"><stop offset="0%" stop-color="#84cc16" stop-opacity="0.22"/><stop offset="100%" stop-color="#84cc16" stop-opacity="0"/></radialGradient>
    <filter id="softShadow" x="-20%" y="-20%" width="140%" height="140%"><feDropShadow dx="0" dy="18" stdDeviation="18" flood-color="#000000" flood-opacity="0.42"/></filter>
  </defs>
  <rect width="1200" height="675" fill="url(#bg)"/>
  <circle cx="985" cy="90" r="240" fill="url(#glow)"/>
  <g opacity="0.045"><path d="M0 135H1200M0 270H1200M0 405H1200M0 540H1200" stroke="#84cc16"/><path d="M300 0V675M600 0V675M900 0V675" stroke="#84cc16"/></g>

  <g transform="translate(72 52)">
    <rect x="0" y="0" width="162" height="52" rx="26" fill="#12141a" stroke="#2b2f38"/>
    <image href="wcore-avatar.png" x="12" y="9" width="34" height="34"/>
    <text x="60" y="33" font-family="Inter, system-ui, -apple-system, sans-serif" font-size="18" font-weight="900" fill="#f4f4f5" letter-spacing="0.8">WCORE</text>
  </g>

  <g transform="translate(78 155)" filter="url(#softShadow)">
    <rect x="0" y="0" width="116" height="116" rx="30" fill="#111319" stroke="#2b2f38"/>
    <path d="M25 70l33 19 33-19M25 51l33 19 33-19M25 32l33 19 33-19" fill="none" stroke="url(#accent)" stroke-width="5" stroke-linejoin="round"/>
  </g>

  <g transform="translate(230 158)">
    <text x="0" y="0" font-family="Inter, system-ui, -apple-system, sans-serif" font-size="62" font-weight="900" fill="url(#accent)" letter-spacing="-2.2">5 price sources.</text>
    <text x="0" y="70" font-family="Inter, system-ui, -apple-system, sans-serif" font-size="52" font-weight="850" fill="#f5f5f6" letter-spacing="-1.7">Smart fallback per token.</text>
    <text x="0" y="128" font-family="Inter, system-ui, -apple-system, sans-serif" font-size="21" fill="#9ca3af">WCORE checks DefiLlama, DexScreener, GeckoTerminal,</text>
    <text x="0" y="160" font-family="Inter, system-ui, -apple-system, sans-serif" font-size="21" fill="#9ca3af">Jupiter and CoinGecko. If one source fails, the next one runs.</text>
  </g>

  <g transform="translate(80 366)">
    <rect x="0" y="0" width="1040" height="78" rx="20" fill="#111319" stroke="#262a34"/>
    <g font-family="Inter, system-ui, -apple-system, sans-serif" font-size="15" font-weight="800" text-anchor="middle">
      <text x="102" y="47" fill="#a3e635">DefiLlama</text><text x="255" y="47" fill="#52525b">then</text>
      <text x="410" y="47" fill="#a3e635">DexScreener</text><text x="565" y="47" fill="#52525b">then</text>
      <text x="725" y="47" fill="#a3e635">GeckoTerminal</text><text x="880" y="47" fill="#52525b">then</text>
      <text x="990" y="47" fill="#a3e635">Jupiter + CG</text>
    </g>
  </g>

  <g transform="translate(80 478)">
    <rect x="0" y="0" width="320" height="74" rx="18" fill="#12141a" stroke="#262a34"/>
    <text x="24" y="31" font-family="Inter, system-ui, -apple-system, sans-serif" font-size="17" font-weight="800" fill="#a3e635">stablecoin fast path</text>
    <text x="24" y="53" font-family="Inter, system-ui, -apple-system, sans-serif" font-size="13" fill="#9ca3af">FX conversion without wasting calls</text>
  </g>
  <g transform="translate(440 478)">
    <rect x="0" y="0" width="320" height="74" rx="18" fill="#12141a" stroke="#262a34"/>
    <text x="24" y="31" font-family="Inter, system-ui, -apple-system, sans-serif" font-size="17" font-weight="800" fill="#a3e635">smart cache</text>
    <text x="24" y="53" font-family="Inter, system-ui, -apple-system, sans-serif" font-size="13" fill="#9ca3af">Fresh prices stay fast across scans</text>
  </g>
  <g transform="translate(800 478)">
    <rect x="0" y="0" width="320" height="74" rx="18" fill="#12141a" stroke="#262a34"/>
    <text x="24" y="31" font-family="Inter, system-ui, -apple-system, sans-serif" font-size="17" font-weight="800" fill="#a3e635">multi currency</text>
    <text x="24" y="53" font-family="Inter, system-ui, -apple-system, sans-serif" font-size="13" fill="#9ca3af">EUR, USD, GBP, CHF and JPY</text>
  </g>

  <text x="600" y="615" text-anchor="middle" font-family="Inter, system-ui, -apple-system, sans-serif" font-size="28" font-weight="900" fill="#a3e635">wcore.xyz</text>
  <rect x="0" y="671" width="1200" height="4" fill="url(#accent)" opacity="0.55"/>
</svg>
