<svg xmlns="http://www.w3.org/2000/svg" viewBox="0 0 1200 675" width="1200" height="675">
  <defs>
    <linearGradient id="bg" x1="0" y1="0" x2="1" y2="1">
      <stop offset="0%" stop-color="#050607"/>
      <stop offset="55%" stop-color="#0d1117"/>
      <stop offset="100%" stop-color="#172016"/>
    </linearGradient>
    <linearGradient id="accent" x1="0" y1="0" x2="1" y2="1">
      <stop offset="0%" stop-color="#bef264"/>
      <stop offset="100%" stop-color="#84cc16"/>
    </linearGradient>
    <linearGradient id="blue" x1="0" y1="0" x2="1" y2="1">
      <stop offset="0%" stop-color="#67e8f9"/>
      <stop offset="100%" stop-color="#3b82f6"/>
    </linearGradient>
    <linearGradient id="purple" x1="0" y1="0" x2="1" y2="1">
      <stop offset="0%" stop-color="#c084fc"/>
      <stop offset="100%" stop-color="#8b5cf6"/>
    </linearGradient>
    <radialGradient id="glowA" cx="50%" cy="50%" r="50%">
      <stop offset="0%" stop-color="#84cc16" stop-opacity="0.28"/>
      <stop offset="100%" stop-color="#84cc16" stop-opacity="0"/>
    </radialGradient>
    <radialGradient id="glowB" cx="50%" cy="50%" r="50%">
      <stop offset="0%" stop-color="#22c55e" stop-opacity="0.16"/>
      <stop offset="100%" stop-color="#22c55e" stop-opacity="0"/>
    </radialGradient>
    <filter id="shadow" x="-20%" y="-20%" width="140%" height="140%">
      <feDropShadow dx="0" dy="20" stdDeviation="18" flood-color="#000000" flood-opacity="0.48"/>
    </filter>
    <filter id="softShadow" x="-30%" y="-30%" width="160%" height="160%">
      <feDropShadow dx="0" dy="12" stdDeviation="12" flood-color="#000000" flood-opacity="0.36"/>
    </filter>
    <clipPath id="logoClip"><circle cx="20" cy="20" r="20"/></clipPath>
    <clipPath id="logoClipSmall"><circle cx="15" cy="15" r="15"/></clipPath>
    <style>
      .font { font-family: Inter, ui-sans-serif, system-ui, -apple-system, BlinkMacSystemFont, "Segoe UI", sans-serif; }
      .muted { fill: #9ca3af; }
      .soft { fill: #d4d4d8; }
      .white { fill: #f5f5f6; }
    </style>
  </defs>

  <rect width="1200" height="675" fill="url(#bg)"/>
  <circle cx="1010" cy="92" r="318" fill="url(#glowA)"/>
  <circle cx="148" cy="630" r="300" fill="url(#glowB)"/>
  <g opacity="0.055">
    <path d="M0 112H1200M0 225H1200M0 338H1200M0 451H1200M0 564H1200" stroke="#84cc16"/>
    <path d="M150 0V675M300 0V675M450 0V675M600 0V675M750 0V675M900 0V675M1050 0V675" stroke="#84cc16"/>
  </g>
  <path d="M-70 142C78 48 238 72 392 124C570 184 684 166 806 98C934 28 1070 54 1270 122" fill="none" stroke="#84cc16" stroke-opacity="0.14" stroke-width="2"/>
  <path d="M-40 532C118 478 234 492 374 548C542 616 700 604 820 530C958 445 1066 462 1240 552" fill="none" stroke="#22c55e" stroke-opacity="0.10" stroke-width="2"/>

  <g transform="translate(72 52)">
    <rect x="0" y="0" width="162" height="52" rx="26" fill="#12151b" stroke="#2c333f"/>
    <g transform="translate(12 9) scale(0.53125)" fill="none" stroke-linecap="round" stroke-linejoin="round">
      <path d="M32 8L54 20.5V45.5L32 58L10 45.5V20.5L32 8Z" stroke="#84cc16" stroke-width="4"/>
      <circle cx="32" cy="33" r="5" fill="#84cc16" stroke="none"/>
      <path d="M32 33L32 20M32 33L21 40M32 33L43 40" stroke="#84cc16" stroke-width="3"/>
      <circle cx="32" cy="20" r="3.5" fill="#84cc16" stroke="none"/>
      <circle cx="21" cy="40" r="3.5" fill="#84cc16" stroke="none"/>
      <circle cx="43" cy="40" r="3.5" fill="#84cc16" stroke="none"/>
      <path d="M32 20L32 8M21 40L10 46M43 40L54 46" stroke="#84cc16" stroke-opacity="0.6" stroke-width="2"/>
      <circle cx="32" cy="8" r="2.5" fill="#84cc16" fill-opacity="0.5" stroke="none"/>
      <circle cx="10" cy="46" r="2.5" fill="#84cc16" fill-opacity="0.5" stroke="none"/>
      <circle cx="54" cy="46" r="2.5" fill="#84cc16" fill-opacity="0.5" stroke="none"/>
    </g>
    <text x="60" y="33" class="font white" font-size="18" font-weight="900" letter-spacing="0.8">WCORE</text>
  </g>

  <g transform="translate(1128 58)" text-anchor="end">
    <text x="0" y="50" class="font white" font-size="54" font-weight="950" letter-spacing="-2.1">One Scan Flow.</text>
    <text x="0" y="88" class="font muted" font-size="20">Every wallet type moves together.</text>
  </g>

  <g transform="translate(72 178)" filter="url(#shadow)">
    <rect x="0" y="0" width="1056" height="384" rx="34" fill="#101319" stroke="#2b323d"/>
    <rect x="28" y="26" width="1000" height="332" rx="26" fill="#0b0e13" stroke="#1f2630"/>
    <path d="M394 92C468 44 584 48 668 106C744 158 768 250 718 310" fill="none" stroke="#84cc16" stroke-opacity="0.045" stroke-width="2"/>
    <path d="M390 294C456 340 574 340 650 286" fill="none" stroke="#22c55e" stroke-opacity="0.04" stroke-width="2"/>

    <g transform="translate(58 56)">
      <rect x="0" y="0" width="238" height="70" rx="20" fill="#141922" stroke="#2d3744"/>
      <circle cx="35" cy="35" r="22" fill="#0d1117" stroke="#3b4654"/>
      <path d="M35 14L23 36L35 43L47 36L35 14Z" fill="#dfe5ee"/>
      <path d="M35 43L23 36L35 56L47 36L35 43Z" fill="#94a3b8"/>
      <path d="M35 14V43L47 36L35 14Z" fill="#b7c2d0"/>
      <path d="M35 43V56L47 36L35 43Z" fill="#64748b"/>
      <text x="72" y="31" class="font white" font-size="19" font-weight="950">EVM Wallets.</text>
      <text x="72" y="53" class="font muted" font-size="13">Ethereum · Base · Arbitrum.</text>
    </g>
    <g transform="translate(58 154)">
      <rect x="0" y="0" width="238" height="70" rx="20" fill="#141922" stroke="#2d3744"/>
      <circle cx="35" cy="35" r="22" fill="#0d1117" stroke="#3b4654"/>
      <g transform="translate(20 21)" stroke-linecap="round">
        <path d="M4 0H30L24 7H0L4 0Z" fill="#67e8f9"/>
        <path d="M0 12H26L30 19H4L0 12Z" fill="#a3e635"/>
        <path d="M4 24H30L26 31H0L4 24Z" fill="#c084fc"/>
      </g>
      <text x="72" y="31" class="font white" font-size="19" font-weight="950">Solana Wallets.</text>
      <text x="72" y="53" class="font muted" font-size="13">SVM tokens + native.</text>
    </g>
    <g transform="translate(58 252)">
      <rect x="0" y="0" width="238" height="70" rx="20" fill="#141922" stroke="#2d3744"/>
      <circle cx="35" cy="35" r="22" fill="#0d1117" stroke="#3b4654"/>
      <g transform="translate(35 35)" fill="none" stroke="#c4b5fd" stroke-width="2.2">
        <ellipse cx="0" cy="0" rx="17" ry="6" transform="rotate(0)"/>
        <ellipse cx="0" cy="0" rx="17" ry="6" transform="rotate(60)"/>
        <ellipse cx="0" cy="0" rx="17" ry="6" transform="rotate(120)"/>
        <circle cx="0" cy="0" r="3.5" fill="#c4b5fd" stroke="none"/>
      </g>
      <text x="72" y="31" class="font white" font-size="19" font-weight="950">Cosmos Wallets.</text>
      <text x="72" y="53" class="font muted" font-size="13">Cosmos · Injective · Terra.</text>
    </g>

    <path d="M314 91C374 91 394 116 430 150" fill="none" stroke="#84cc16" stroke-opacity="0.34" stroke-width="3.5" stroke-linecap="round"/>
    <path d="M314 189H430" fill="none" stroke="#67e8f9" stroke-opacity="0.38" stroke-width="3.5" stroke-linecap="round"/>
    <path d="M314 287C374 287 394 262 430 228" fill="none" stroke="#c084fc" stroke-opacity="0.36" stroke-width="3.5" stroke-linecap="round"/>
    <circle cx="430" cy="150" r="4.5" fill="#84cc16"/>
    <circle cx="430" cy="189" r="4.5" fill="#67e8f9"/>
    <circle cx="430" cy="228" r="4.5" fill="#c084fc"/>

    <g transform="translate(424 66)" filter="url(#softShadow)">
      <rect x="0" y="0" width="270" height="246" rx="34" fill="#162015" stroke="#3d5f24"/>
      <rect x="24" y="24" width="222" height="42" rx="21" fill="#0d1117" stroke="#2f3b26"/>
      <text x="135" y="51" text-anchor="middle" class="font" font-size="13" font-weight="950" fill="#a3e635" letter-spacing="1.6">SHARED SCAN ENGINE</text>
      <text x="135" y="116" text-anchor="middle" class="font white" font-size="66" font-weight="950" letter-spacing="-2.4">30</text>
      <text x="135" y="146" text-anchor="middle" class="font soft" font-size="21" font-weight="900">Parallel Chain Jobs.</text>
      <text x="135" y="176" text-anchor="middle" class="font muted" font-size="14">One pool for every wallet type.</text>
      <g transform="translate(54 202)">
        <rect x="0" y="0" width="48" height="22" rx="11" fill="#0d1117" stroke="#2f3b26"/>
        <text x="24" y="15" text-anchor="middle" class="font white" font-size="11" font-weight="850">EVM</text>
        <rect x="58" y="0" width="48" height="22" rx="11" fill="#0d1117" stroke="#2f3b26"/>
        <text x="82" y="15" text-anchor="middle" class="font white" font-size="11" font-weight="850">SVM</text>
        <rect x="116" y="0" width="48" height="22" rx="11" fill="#0d1117" stroke="#2f3b26"/>
        <text x="140" y="15" text-anchor="middle" class="font white" font-size="11" font-weight="850">IBC</text>
      </g>
    </g>

    <path d="M704 189H746" stroke="#84cc16" stroke-width="3.5" stroke-linecap="round" stroke-opacity="0.52"/>
    <path d="M734 177L748 189L734 201" fill="none" stroke="#84cc16" stroke-width="3.5" stroke-linecap="round" stroke-linejoin="round"/>

    <g transform="translate(770 56)">
      <rect x="0" y="0" width="220" height="266" rx="28" fill="#141922" stroke="#2d3744"/>
      <text x="24" y="38" class="font white" font-size="23" font-weight="950">Live Progress.</text>
      <text x="24" y="64" class="font muted" font-size="13">Results stream as they finish.</text>

      <g transform="translate(24 94)">
        <circle cx="15" cy="15" r="16" fill="#f5f5f6"/>
        <image href="chains/BASE.png" x="0" y="0" width="30" height="30" clip-path="url(#logoClipSmall)"/>
        <rect x="42" y="6" width="118" height="8" rx="4" fill="#2b323d"/>
        <rect x="42" y="6" width="94" height="8" rx="4" fill="url(#accent)"/>
        <text x="42" y="28" class="font muted" font-size="11">Base Batch Done.</text>
      </g>
      <g transform="translate(24 142)">
        <circle cx="15" cy="15" r="16" fill="#f5f5f6"/>
        <image href="chains/SOLANA.png" x="0" y="0" width="30" height="30" clip-path="url(#logoClipSmall)"/>
        <rect x="42" y="6" width="118" height="8" rx="4" fill="#2b323d"/>
        <rect x="42" y="6" width="78" height="8" rx="4" fill="url(#blue)"/>
        <text x="42" y="28" class="font muted" font-size="11">Solana Scanning.</text>
      </g>
      <g transform="translate(24 190)">
        <circle cx="15" cy="15" r="16" fill="#f5f5f6"/>
        <image href="chains/COSMOS_HUB.png" x="0" y="0" width="30" height="30" clip-path="url(#logoClipSmall)"/>
        <rect x="42" y="6" width="118" height="8" rx="4" fill="#2b323d"/>
        <rect x="42" y="6" width="58" height="8" rx="4" fill="url(#purple)"/>
        <text x="42" y="28" class="font muted" font-size="11">Cosmos In The Same Flow.</text>
      </g>
      <g transform="translate(24 236)">
        <circle cx="0" cy="0" r="5" fill="#84cc16"/>
        <text x="14" y="4" class="font" font-size="12" font-weight="850" fill="#a3e635">No VM Waiting Room.</text>
      </g>
    </g>
  </g>

  <g transform="translate(72 612)">
    <text x="0" y="0" class="font muted" font-size="18" font-weight="750">Multi-wallet scans feel smoother because every chain shares one flow.</text>
    <text x="1056" y="0" text-anchor="end" class="font" font-size="28" font-weight="950" fill="url(#accent)">wcore.xyz</text>
  </g>
  <rect x="0" y="671" width="1200" height="4" fill="url(#accent)" opacity="0.62"/>
</svg>
