<svg xmlns="http://www.w3.org/2000/svg" viewBox="0 0 1200 675" width="1200" height="675">
  <defs>
    <linearGradient id="bg" x1="0" y1="0" x2="1" y2="1">
      <stop offset="0%" stop-color="#050607"/>
      <stop offset="56%" stop-color="#0d1117"/>
      <stop offset="100%" stop-color="#172313"/>
    </linearGradient>
    <linearGradient id="accent" x1="0" y1="0" x2="1" y2="1">
      <stop offset="0%" stop-color="#bef264"/>
      <stop offset="100%" stop-color="#84cc16"/>
    </linearGradient>
    <linearGradient id="cyan" x1="0" y1="0" x2="1" y2="1">
      <stop offset="0%" stop-color="#67e8f9"/>
      <stop offset="100%" stop-color="#22c55e"/>
    </linearGradient>
    <linearGradient id="violet" x1="0" y1="0" x2="1" y2="1">
      <stop offset="0%" stop-color="#c4b5fd"/>
      <stop offset="100%" stop-color="#8b5cf6"/>
    </linearGradient>
    <radialGradient id="glowA" cx="50%" cy="50%" r="50%">
      <stop offset="0%" stop-color="#84cc16" stop-opacity="0.30"/>
      <stop offset="100%" stop-color="#84cc16" stop-opacity="0"/>
    </radialGradient>
    <radialGradient id="glowB" cx="50%" cy="50%" r="50%">
      <stop offset="0%" stop-color="#67e8f9" stop-opacity="0.14"/>
      <stop offset="100%" stop-color="#67e8f9" stop-opacity="0"/>
    </radialGradient>
    <filter id="shadow" x="-20%" y="-20%" width="140%" height="140%">
      <feDropShadow dx="0" dy="20" stdDeviation="18" flood-color="#000000" flood-opacity="0.46"/>
    </filter>
    <filter id="softShadow" x="-35%" y="-35%" width="170%" height="170%">
      <feDropShadow dx="0" dy="10" stdDeviation="10" flood-color="#000000" flood-opacity="0.34"/>
    </filter>
    <style>
      .font { font-family: Inter, ui-sans-serif, system-ui, -apple-system, BlinkMacSystemFont, "Segoe UI", sans-serif; }
      .white { fill: #f5f5f6; }
      .muted { fill: #9ca3af; }
      .lime { fill: #a3e635; }
      .soft { fill: #d4d4d8; }
    </style>
  </defs>

  <rect width="1200" height="675" fill="url(#bg)"/>
  <circle cx="1010" cy="82" r="330" fill="url(#glowA)"/>
  <circle cx="136" cy="610" r="312" fill="url(#glowB)"/>
  <g opacity="0.055">
    <path d="M0 112H1200M0 225H1200M0 338H1200M0 451H1200M0 564H1200" stroke="#84cc16"/>
    <path d="M150 0V675M300 0V675M450 0V675M600 0V675M750 0V675M900 0V675M1050 0V675" stroke="#84cc16"/>
  </g>
  <path d="M-70 132C82 54 246 74 402 124C570 178 690 158 828 88C970 16 1088 52 1260 118" fill="none" stroke="#84cc16" stroke-opacity="0.14" stroke-width="2"/>
  <path d="M-60 540C120 470 246 500 402 552C556 604 718 598 856 520C998 446 1080 468 1240 548" fill="none" stroke="#22c55e" stroke-opacity="0.10" stroke-width="2"/>

  <g transform="translate(72 52)">
    <rect x="0" y="0" width="162" height="52" rx="26" fill="#12151b" stroke="#2c333f"/>
    <g transform="translate(12 9) scale(0.53125)" fill="none" stroke-linecap="round" stroke-linejoin="round">
      <path d="M32 8L54 20.5V45.5L32 58L10 45.5V20.5L32 8Z" stroke="#84cc16" stroke-width="4"/>
      <circle cx="32" cy="33" r="5" fill="#84cc16" stroke="none"/>
      <path d="M32 33L32 20M32 33L21 40M32 33L43 40" stroke="#84cc16" stroke-width="3"/>
      <circle cx="32" cy="20" r="3.5" fill="#84cc16" stroke="none"/>
      <circle cx="21" cy="40" r="3.5" fill="#84cc16" stroke="none"/>
      <circle cx="43" cy="40" r="3.5" fill="#84cc16" stroke="none"/>
      <path d="M32 20L32 8M21 40L10 46M43 40L54 46" stroke="#84cc16" stroke-opacity="0.6" stroke-width="2"/>
      <circle cx="32" cy="8" r="2.5" fill="#84cc16" fill-opacity="0.5" stroke="none"/>
      <circle cx="10" cy="46" r="2.5" fill="#84cc16" fill-opacity="0.5" stroke="none"/>
      <circle cx="54" cy="46" r="2.5" fill="#84cc16" fill-opacity="0.5" stroke="none"/>
    </g>
    <text x="60" y="33" class="font white" font-size="18" font-weight="900" letter-spacing="0.8">WCORE</text>
  </g>

  <g transform="translate(1128 58)" text-anchor="end">
    <text x="0" y="50" class="font white" font-size="56" font-weight="950" letter-spacing="-2.1">Today's WCORE update.</text>
    <text x="0" y="88" class="font muted" font-size="20">Cleaner scans. Better coverage.</text>
  </g>

  <g transform="translate(72 184)" filter="url(#shadow)">
    <rect x="0" y="0" width="548" height="358" rx="34" fill="#101319" stroke="#2b323d"/>
    <rect x="32" y="30" width="146" height="30" rx="15" fill="#172015" stroke="#34551f"/>
    <text x="105" y="50" text-anchor="middle" class="font lime" font-size="13" font-weight="950" letter-spacing="1.1">SCAN QUALITY</text>

    <g transform="translate(54 92)">
      <rect x="0" y="0" width="222" height="232" rx="30" fill="#0b0f15" stroke="#25303c"/>
      <rect x="22" y="22" width="178" height="38" rx="19" fill="#101620" stroke="#344052"/>
      <circle cx="44" cy="41" r="6" fill="#a3e635"/>
      <rect x="62" y="34" width="78" height="5" rx="2.5" fill="#334155"/>
      <rect x="62" y="44" width="112" height="5" rx="2.5" fill="#1f2937"/>

      <g transform="translate(39 75)">
        <circle cx="72" cy="72" r="72" fill="#172015" stroke="#34551f" stroke-width="2"/>
        <circle cx="72" cy="72" r="51" fill="#0b0f15" stroke="#25303c"/>
        <path d="M40 74L61 95L108 48" fill="none" stroke="#a3e635" stroke-width="12" stroke-linecap="round" stroke-linejoin="round"/>
      </g>

      <g class="font" font-size="11" font-weight="900">
        <rect x="24" y="185" width="54" height="24" rx="12" fill="#172015" stroke="#34551f"/>
        <text x="51" y="201" text-anchor="middle" fill="#a3e635">RealT</text>
        <rect x="86" y="185" width="48" height="24" rx="12" fill="#101620" stroke="#344052"/>
        <text x="110" y="201" text-anchor="middle" fill="#d4d4d8">SVM</text>
        <rect x="142" y="185" width="56" height="24" rx="12" fill="#101620" stroke="#344052"/>
        <text x="170" y="201" text-anchor="middle" fill="#d4d4d8">Cosmos</text>
      </g>
    </g>

    <text x="304" y="158" class="font white" font-size="45" font-weight="950" letter-spacing="-1.6">Cleaner</text>
    <text x="304" y="206" class="font white" font-size="45" font-weight="950" letter-spacing="-1.6">scans</text>
    <text x="304" y="247" class="font muted" font-size="17" font-weight="700">Property tokens.</text>
    <text x="304" y="274" class="font muted" font-size="17" font-weight="700">SVM balances.</text>
    <text x="304" y="301" class="font muted" font-size="17" font-weight="700">Cosmos fallback.</text>
  </g>

  <g transform="translate(660 184)" filter="url(#shadow)">
    <rect x="0" y="0" width="468" height="112" rx="30" fill="#101319" stroke="#2b323d"/>
    <rect x="24" y="24" width="60" height="60" rx="18" fill="#172015" stroke="#34551f"/>
    <text x="54" y="61" text-anchor="middle" class="font" font-size="25" font-weight="950" fill="url(#accent)">$</text>
    <text x="104" y="45" class="font white" font-size="27" font-weight="950">RealT on Gnosis</text>
    <text x="104" y="76" class="font muted" font-size="15">Property-token pricing from official data.</text>
  </g>

  <g transform="translate(660 320)" filter="url(#shadow)">
    <rect x="0" y="0" width="468" height="112" rx="30" fill="#101319" stroke="#2b323d"/>
    <rect x="24" y="24" width="60" height="60" rx="18" fill="#101620" stroke="#344052"/>
    <g transform="translate(42 38)">
      <path d="M5 0H35L29 7H0L5 0Z" fill="#67e8f9"/>
      <path d="M0 13H30L35 20H5L0 13Z" fill="#a3e635"/>
      <path d="M5 26H35L30 33H0L5 26Z" fill="#c084fc"/>
    </g>
    <text x="104" y="45" class="font white" font-size="27" font-weight="950">Solana + Cosmos</text>
    <text x="104" y="76" class="font muted" font-size="15">Balance fallbacks protect against flaky RPCs.</text>
  </g>

  <g transform="translate(660 456)" filter="url(#shadow)">
    <rect x="0" y="0" width="468" height="112" rx="30" fill="#101319" stroke="#2b323d"/>
    <rect x="24" y="24" width="60" height="60" rx="18" fill="#0c1a24" stroke="#1e4d73"/>
    <circle cx="54" cy="54" r="21" fill="none" stroke="#67e8f9" stroke-width="3"/>
    <path d="M38 54H70M54 38C61 46 61 62 54 70M54 38C47 46 47 62 54 70" fill="none" stroke="#67e8f9" stroke-width="2.5" stroke-linecap="round"/>
    <text x="104" y="45" class="font white" font-size="27" font-weight="950">180+ chains</text>
    <text x="104" y="76" class="font muted" font-size="15">One read-only map across EVM, Solana and Cosmos.</text>
  </g>

  <g transform="translate(72 612)">
    <text x="0" y="0" class="font muted" font-size="18" font-weight="750">Read-only portfolio tracking. No wallet connect needed.</text>
    <text x="1056" y="0" text-anchor="end" class="font" font-size="30" font-weight="950" fill="url(#accent)">wcore.xyz</text>
  </g>
  <rect x="0" y="671" width="1200" height="4" fill="url(#accent)" opacity="0.66"/>
</svg>
