<svg xmlns="http://www.w3.org/2000/svg" viewBox="0 0 1200 675" width="1200" height="675">
  <defs>
    <linearGradient id="bg" x1="0" y1="0" x2="1" y2="1">
      <stop offset="0%" stop-color="#060708"/>
      <stop offset="54%" stop-color="#0d1014"/>
      <stop offset="100%" stop-color="#171b22"/>
    </linearGradient>
    <linearGradient id="accent" x1="0" y1="0" x2="1" y2="1">
      <stop offset="0%" stop-color="#bef264"/>
      <stop offset="100%" stop-color="#84cc16"/>
    </linearGradient>
    <radialGradient id="glowA" cx="50%" cy="50%" r="50%">
      <stop offset="0%" stop-color="#84cc16" stop-opacity="0.26"/>
      <stop offset="100%" stop-color="#84cc16" stop-opacity="0"/>
    </radialGradient>
    <radialGradient id="glowB" cx="50%" cy="50%" r="50%">
      <stop offset="0%" stop-color="#22c55e" stop-opacity="0.16"/>
      <stop offset="100%" stop-color="#22c55e" stop-opacity="0"/>
    </radialGradient>
    <filter id="softShadow" x="-20%" y="-20%" width="140%" height="140%">
      <feDropShadow dx="0" dy="20" stdDeviation="18" flood-color="#000000" flood-opacity="0.48"/>
    </filter>
    <filter id="smallShadow" x="-20%" y="-20%" width="140%" height="140%">
      <feDropShadow dx="0" dy="10" stdDeviation="10" flood-color="#000000" flood-opacity="0.38"/>
    </filter>
    <clipPath id="chainLogoClip">
      <circle cx="28" cy="29" r="17"/>
    </clipPath>
  </defs>

  <rect width="1200" height="675" fill="url(#bg)"/>
  <circle cx="1030" cy="82" r="300" fill="url(#glowA)"/>
  <circle cx="185" cy="620" r="310" fill="url(#glowB)"/>
  <g opacity="0.052">
    <path d="M0 112H1200M0 225H1200M0 338H1200M0 451H1200M0 564H1200" stroke="#84cc16"/>
    <path d="M150 0V675M300 0V675M450 0V675M600 0V675M750 0V675M900 0V675M1050 0V675" stroke="#84cc16"/>
  </g>
  <path d="M-70 138C74 44 238 72 392 124C570 184 684 166 806 98C934 28 1070 54 1270 122" fill="none" stroke="#84cc16" stroke-opacity="0.14" stroke-width="2"/>

  <g transform="translate(72 52)">
    <rect x="0" y="0" width="162" height="52" rx="26" fill="#12151b" stroke="#2c333f"/>
    <g transform="translate(12 9) scale(0.53125)" fill="none" stroke-linecap="round" stroke-linejoin="round">
      <path d="M32 8L54 20.5V45.5L32 58L10 45.5V20.5L32 8Z" stroke="#84cc16" stroke-width="4"/>
      <circle cx="32" cy="33" r="5" fill="#84cc16" stroke="none"/>
      <path d="M32 33L32 20M32 33L21 40M32 33L43 40" stroke="#84cc16" stroke-width="3"/>
      <circle cx="32" cy="20" r="3.5" fill="#84cc16" stroke="none"/>
      <circle cx="21" cy="40" r="3.5" fill="#84cc16" stroke="none"/>
      <circle cx="43" cy="40" r="3.5" fill="#84cc16" stroke="none"/>
      <path d="M32 20L32 8M21 40L10 46M43 40L54 46" stroke="#84cc16" stroke-opacity="0.6" stroke-width="2"/>
      <circle cx="32" cy="8" r="2.5" fill="#84cc16" fill-opacity="0.5" stroke="none"/>
      <circle cx="10" cy="46" r="2.5" fill="#84cc16" fill-opacity="0.5" stroke="none"/>
      <circle cx="54" cy="46" r="2.5" fill="#84cc16" fill-opacity="0.5" stroke="none"/>
    </g>
    <text x="60" y="33" font-family="Inter, system-ui, -apple-system, sans-serif" font-size="18" font-weight="900" fill="#f4f4f5" letter-spacing="0.8">WCORE</text>
  </g>

  <g transform="translate(72 133)">
    <text x="0" y="68" font-family="Inter, system-ui, -apple-system, sans-serif" font-size="66" font-weight="950" fill="#f5f5f6" letter-spacing="-2.3">Today's WCORE update.</text>
    <text x="0" y="112" font-family="Inter, system-ui, -apple-system, sans-serif" font-size="22" fill="#9ca3af">GM expanded across more chains, with reliability and UI polish shipped.</text>
  </g>

  <g transform="translate(72 300)" filter="url(#softShadow)">
    <rect x="0" y="0" width="508" height="242" rx="30" fill="#101319" stroke="#2b323d"/>
    <rect x="24" y="24" width="56" height="56" rx="17" fill="#172015" stroke="#34551f"/>
    <text x="52" y="61" text-anchor="middle" font-family="Inter, system-ui, -apple-system, sans-serif" font-size="24" font-weight="950" fill="url(#accent)">GM</text>
    <text x="98" y="47" font-family="Inter, system-ui, -apple-system, sans-serif" font-size="28" font-weight="950" fill="#f5f5f6">GM on-chain expanded</text>
    <text x="98" y="77" font-family="Inter, system-ui, -apple-system, sans-serif" font-size="15" fill="#9ca3af">New live factories for daily on-chain streaks.</text>

    <g transform="translate(26 142)">
      <rect x="0" y="0" width="138" height="58" rx="18" fill="#151a22" stroke="#303845"/>
      <circle cx="28" cy="29" r="18" fill="#f5f5f6"/>
      <image href="https://raw.githubusercontent.com/trustwallet/assets/master/blockchains/scroll/info/logo.png" x="11" y="12" width="34" height="34" clip-path="url(#chainLogoClip)"/>
      <text x="50" y="35" font-family="Inter, system-ui, -apple-system, sans-serif" font-size="18" font-weight="850" fill="#f5f5f6">Scroll</text>
    </g>
    <g transform="translate(185 142)">
      <rect x="0" y="0" width="138" height="58" rx="18" fill="#151a22" stroke="#303845"/>
      <circle cx="28" cy="29" r="18" fill="#f5f5f6"/>
      <image href="https://raw.githubusercontent.com/trustwallet/assets/master/blockchains/linea/info/logo.png" x="11" y="12" width="34" height="34" clip-path="url(#chainLogoClip)"/>
      <text x="50" y="35" font-family="Inter, system-ui, -apple-system, sans-serif" font-size="18" font-weight="850" fill="#f5f5f6">Linea</text>
    </g>
    <g transform="translate(344 142)">
      <rect x="0" y="0" width="138" height="58" rx="18" fill="#151a22" stroke="#303845"/>
      <circle cx="28" cy="29" r="18" fill="#f5f5f6"/>
      <image href="https://raw.githubusercontent.com/trustwallet/assets/master/blockchains/mantle/info/logo.png" x="11" y="12" width="34" height="34" clip-path="url(#chainLogoClip)"/>
      <text x="50" y="35" font-family="Inter, system-ui, -apple-system, sans-serif" font-size="18" font-weight="850" fill="#f5f5f6">Mantle</text>
    </g>
  </g>

  <g transform="translate(620 300)" filter="url(#softShadow)">
    <rect x="0" y="0" width="508" height="242" rx="30" fill="#101319" stroke="#2b323d"/>
    <rect x="24" y="24" width="56" height="56" rx="17" fill="#182014" stroke="#34551f"/>
    <path d="M39 53L49 63L66 42" fill="none" stroke="#a3e635" stroke-width="5" stroke-linecap="round" stroke-linejoin="round"/>
    <text x="98" y="47" font-family="Inter, system-ui, -apple-system, sans-serif" font-size="28" font-weight="950" fill="#f5f5f6">Product polish</text>
    <text x="98" y="77" font-family="Inter, system-ui, -apple-system, sans-serif" font-size="15" fill="#9ca3af">Small fixes that make the app feel faster and safer.</text>

    <g transform="translate(28 118)">
      <rect x="0" y="0" width="452" height="38" rx="19" fill="#151a22" stroke="#303845"/>
      <circle cx="22" cy="19" r="5" fill="#84cc16"/>
      <text x="42" y="25" font-family="Inter, system-ui, -apple-system, sans-serif" font-size="17" font-weight="760" fill="#f5f5f6">Receipt retry for on-chain GM verification</text>
    </g>
    <g transform="translate(28 164)">
      <rect x="0" y="0" width="216" height="38" rx="19" fill="#151a22" stroke="#303845"/>
      <circle cx="22" cy="19" r="5" fill="#84cc16"/>
      <text x="42" y="25" font-family="Inter, system-ui, -apple-system, sans-serif" font-size="17" font-weight="760" fill="#f5f5f6">14 token icons</text>
    </g>
    <g transform="translate(264 164)">
      <rect x="0" y="0" width="216" height="38" rx="19" fill="#151a22" stroke="#303845"/>
      <circle cx="22" cy="19" r="5" fill="#84cc16"/>
      <text x="42" y="25" font-family="Inter, system-ui, -apple-system, sans-serif" font-size="17" font-weight="760" fill="#f5f5f6">Native pricing</text>
    </g>
  </g>

  <g transform="translate(72 584)">
    <text x="0" y="0" font-family="Inter, system-ui, -apple-system, sans-serif" font-size="18" font-weight="750" fill="#9ca3af">Scan wallets, say GM, track everything from one place.</text>
    <text x="1056" y="0" text-anchor="end" font-family="Inter, system-ui, -apple-system, sans-serif" font-size="28" font-weight="950" fill="url(#accent)">wcore.xyz</text>
  </g>
  <rect x="0" y="671" width="1200" height="4" fill="url(#accent)" opacity="0.62"/>
</svg>
