<svg width="64" height="64" viewBox="0 0 64 64" fill="none" xmlns="http://www.w3.org/2000/svg">
<rect width="64" height="64" rx="30" fill="white" fill-opacity="0.1"/>
<path d="M31.5589 51.0219C35.0877 48.8164 35.0877 43.9644 32 40.8767C26.7627 48.3166 22.4783 50.7803 13.915 50.1397C18.326 54.5507 23.3956 55.6237 31.5589 51.0219Z" fill="#28D8A0"/>
<path d="M48.3203 37.3479C48.3203 41.3178 49.3956 41.6493 50.0847 44.4055C47.0069 41.8692 44.344 41.3466 41.2627 42.2C42.586 37.789 41.473 35.5485 39.9395 32.0548C46.0699 31.4605 48.3203 33.3781 48.3203 37.3479Z" fill="#28D8A0"/>
<path d="M36.4122 27.6438C41.7043 35.1425 42.5865 43.0822 37.2943 46.1699C40.3588 40.115 38.6672 36.5151 31.5601 29.8493C24.9423 23.674 23.6193 14.852 32.0012 9.99999C31.0907 16.496 31.8186 20.322 36.4122 27.6438Z" fill="#28D8A0"/>
<path d="M25.3824 25.4384C21.0605 21.4977 19.7705 18.9369 18.766 13.9699C14.796 19.6495 13.9148 24.1952 19.2071 28.526C24.4994 32.8568 30.2345 37.7891 30.2345 37.7891C33.5418 40.588 34.7837 42.7316 35.5276 47.9343C39.1742 42.566 39.9377 38.6712 34.6454 33.8192C29.3532 28.9671 25.3824 25.4384 25.3824 25.4384Z" fill="#28D8A0"/>
</svg>